<svg width="635" height="276" viewBox="0 0 635 276" fill="none" xmlns="http://www.w3.org/2000/svg">
<rect width="635" height="276" rx="25" fill="white"/>
<mask id="path-2-inside-1_105_384" fill="white">
<path d="M67.1307 232.818V240.097C67.1307 241.364 66.5241 242.045 65.4602 242.045C64.4908 242.045 63.7898 241.479 63.7898 240.614H62.5767C62.5767 242.18 63.7898 243.139 65.4602 243.139C67.2301 243.139 68.3636 242.05 68.3636 240.097V232.818H67.1307ZM75.4879 239.878C75.4879 241.31 74.3942 241.966 73.5192 241.966C72.5447 241.966 71.8487 241.25 71.8487 240.136V235.364H70.6754V240.216C70.6754 242.165 71.7095 243.099 73.1413 243.099C74.2947 243.099 75.0504 242.483 75.4084 241.707H75.4879V243H76.6612V235.364H75.4879V239.878ZM79.9835 232.818H78.8102V243H79.9835V232.818Z"/>
</mask>
<path d="M67.1307 232.818V240.097C67.1307 241.364 66.5241 242.045 65.4602 242.045C64.4908 242.045 63.7898 241.479 63.7898 240.614H62.5767C62.5767 242.18 63.7898 243.139 65.4602 243.139C67.2301 243.139 68.3636 242.05 68.3636 240.097V232.818H67.1307ZM75.4879 239.878C75.4879 241.31 74.3942 241.966 73.5192 241.966C72.5447 241.966 71.8487 241.25 71.8487 240.136V235.364H70.6754V240.216C70.6754 242.165 71.7095 243.099 73.1413 243.099C74.2947 243.099 75.0504 242.483 75.4084 241.707H75.4879V243H76.6612V235.364H75.4879V239.878ZM79.9835 232.818H78.8102V243H79.9835V232.818Z" fill="#718EBF"/>
<path d="M67.1307 232.818V231.818H66.1307V232.818H67.1307ZM63.7898 240.614H64.7898V239.614H63.7898V240.614ZM62.5767 240.614V239.614H61.5767V240.614H62.5767ZM68.3636 232.818H69.3636V231.818H68.3636V232.818ZM66.1307 232.818V240.097H68.1307V232.818H66.1307ZM66.1307 240.097C66.1307 240.586 66.0127 240.806 65.9384 240.892C65.8836 240.955 65.769 241.045 65.4602 241.045V243.045C66.2154 243.045 66.936 242.795 67.4504 242.201C67.9454 241.629 68.1307 240.875 68.1307 240.097H66.1307ZM65.4602 241.045C65.1647 241.045 64.9893 240.96 64.9059 240.889C64.8371 240.831 64.7898 240.754 64.7898 240.614H62.7898C62.7898 241.338 63.093 241.977 63.617 242.419C64.1265 242.848 64.7863 243.045 65.4602 243.045V241.045ZM63.7898 239.614H62.5767V241.614H63.7898V239.614ZM61.5767 240.614C61.5767 241.676 61.9982 242.591 62.7441 243.225C63.4734 243.846 64.4402 244.139 65.4602 244.139V242.139C64.8098 242.139 64.3349 241.953 64.04 241.702C63.7617 241.465 63.5767 241.117 63.5767 240.614H61.5767ZM65.4602 244.139C66.552 244.139 67.5585 243.799 68.2909 243.049C69.0212 242.302 69.3636 241.266 69.3636 240.097H67.3636C67.3636 240.881 67.1393 241.366 66.8604 241.652C66.5835 241.935 66.1384 242.139 65.4602 242.139V244.139ZM69.3636 240.097V232.818H67.3636V240.097H69.3636ZM68.3636 231.818H67.1307V233.818H68.3636V231.818ZM71.8487 235.364H72.8487V234.364H71.8487V235.364ZM70.6754 235.364V234.364H69.6754V235.364H70.6754ZM75.4084 241.707V240.707H74.7685L74.5004 241.288L75.4084 241.707ZM75.4879 241.707H76.4879V240.707H75.4879V241.707ZM75.4879 243H74.4879V244H75.4879V243ZM76.6612 243V244H77.6612V243H76.6612ZM76.6612 235.364H77.6612V234.364H76.6612V235.364ZM75.4879 235.364V234.364H74.4879V235.364H75.4879ZM74.4879 239.878C74.4879 240.315 74.3313 240.564 74.1643 240.714C73.9747 240.884 73.7238 240.966 73.5192 240.966V242.966C74.8405 242.966 76.4879 241.962 76.4879 239.878H74.4879ZM73.5192 240.966C73.2874 240.966 73.1428 240.887 73.0509 240.788C72.9545 240.684 72.8487 240.484 72.8487 240.136H70.8487C70.8487 240.902 71.0909 241.617 71.5862 242.15C72.0859 242.687 72.7765 242.966 73.5192 242.966V240.966ZM72.8487 240.136V235.364H70.8487V240.136H72.8487ZM71.8487 234.364H70.6754V236.364H71.8487V234.364ZM69.6754 235.364V240.216H71.6754V235.364H69.6754ZM69.6754 240.216C69.6754 241.361 69.9806 242.351 70.6343 243.064C71.2965 243.787 72.2021 244.099 73.1413 244.099V242.099C72.6488 242.099 72.3214 241.945 72.1086 241.713C71.8873 241.471 71.6754 241.02 71.6754 240.216H69.6754ZM73.1413 244.099C74.7118 244.099 75.8066 243.231 76.3163 242.126L74.5004 241.288C74.2943 241.735 73.8777 242.099 73.1413 242.099V244.099ZM75.4084 242.707H75.4879V240.707H75.4084V242.707ZM74.4879 241.707V243H76.4879V241.707H74.4879ZM75.4879 244H76.6612V242H75.4879V244ZM77.6612 243V235.364H75.6612V243H77.6612ZM76.6612 234.364H75.4879V236.364H76.6612V234.364ZM74.4879 235.364V239.878H76.4879V235.364H74.4879ZM79.9835 232.818H80.9835V231.818H79.9835V232.818ZM78.8102 232.818V231.818H77.8102V232.818H78.8102ZM78.8102 243H77.8102V244H78.8102V243ZM79.9835 243V244H80.9835V243H79.9835ZM79.9835 231.818H78.8102V233.818H79.9835V231.818ZM77.8102 232.818V243H79.8102V232.818H77.8102ZM78.8102 244H79.9835V242H78.8102V244ZM80.9835 243V232.818H78.9835V243H80.9835Z" fill="#718EBF" mask="url(#path-2-inside-1_105_384)"/>
<mask id="path-4-inside-2_105_384" fill="white">
<path d="M132.095 243L133.119 240.116H137.235L138.26 243H139.552L135.814 232.818H134.541L130.802 243H132.095ZM133.507 239.023L135.137 234.429H135.217L136.848 239.023H133.507ZM145.792 239.878C145.792 241.31 144.698 241.966 143.823 241.966C142.848 241.966 142.152 241.25 142.152 240.136V235.364H140.979V240.216C140.979 242.165 142.013 243.099 143.445 243.099C144.598 243.099 145.354 242.483 145.712 241.707H145.792V243H146.965V235.364H145.792V239.878ZM152.196 246.023C154.026 246.023 155.497 245.188 155.497 243.219V235.364H154.364V236.577H154.244C153.986 236.179 153.509 235.264 152.017 235.264C150.088 235.264 148.756 236.795 148.756 239.142C148.756 241.528 150.148 242.881 151.997 242.881C153.489 242.881 153.966 242.006 154.225 241.588H154.324V243.139C154.324 244.412 153.429 244.989 152.196 244.989C150.809 244.989 150.322 244.258 150.009 243.835L149.074 244.491C149.551 245.292 150.491 246.023 152.196 246.023ZM152.156 241.827C150.685 241.827 149.929 240.713 149.929 239.122C149.929 237.571 150.665 236.318 152.156 236.318C153.588 236.318 154.344 237.472 154.344 239.122C154.344 240.812 153.568 241.827 152.156 241.827Z"/>
</mask>
<path d="M132.095 243L133.119 240.116H137.235L138.26 243H139.552L135.814 232.818H134.541L130.802 243H132.095ZM133.507 239.023L135.137 234.429H135.217L136.848 239.023H133.507ZM145.792 239.878C145.792 241.31 144.698 241.966 143.823 241.966C142.848 241.966 142.152 241.25 142.152 240.136V235.364H140.979V240.216C140.979 242.165 142.013 243.099 143.445 243.099C144.598 243.099 145.354 242.483 145.712 241.707H145.792V243H146.965V235.364H145.792V239.878ZM152.196 246.023C154.026 246.023 155.497 245.188 155.497 243.219V235.364H154.364V236.577H154.244C153.986 236.179 153.509 235.264 152.017 235.264C150.088 235.264 148.756 236.795 148.756 239.142C148.756 241.528 150.148 242.881 151.997 242.881C153.489 242.881 153.966 242.006 154.225 241.588H154.324V243.139C154.324 244.412 153.429 244.989 152.196 244.989C150.809 244.989 150.322 244.258 150.009 243.835L149.074 244.491C149.551 245.292 150.491 246.023 152.196 246.023ZM152.156 241.827C150.685 241.827 149.929 240.713 149.929 239.122C149.929 237.571 150.665 236.318 152.156 236.318C153.588 236.318 154.344 237.472 154.344 239.122C154.344 240.812 153.568 241.827 152.156 241.827Z" fill="#718EBF"/>
<path d="M132.095 243V244H132.801L133.037 243.335L132.095 243ZM133.119 240.116V239.116H132.413L132.177 239.782L133.119 240.116ZM137.235 240.116L138.178 239.782L137.941 239.116H137.235V240.116ZM138.26 243L137.317 243.335L137.554 244H138.26V243ZM139.552 243V244H140.985L140.491 242.655L139.552 243ZM135.814 232.818L136.752 232.473L136.512 231.818H135.814V232.818ZM134.541 232.818V231.818H133.843L133.602 232.473L134.541 232.818ZM130.802 243L129.863 242.655L129.37 244H130.802V243ZM133.507 239.023L132.564 238.688L132.091 240.023H133.507V239.023ZM135.137 234.429V233.429H134.431L134.195 234.094L135.137 234.429ZM135.217 234.429L136.159 234.094L135.923 233.429H135.217V234.429ZM136.848 239.023V240.023H138.264L137.79 238.688L136.848 239.023ZM133.037 243.335L134.061 240.451L132.177 239.782L131.152 242.665L133.037 243.335ZM133.119 241.116H137.235V239.116H133.119V241.116ZM136.293 240.451L137.317 243.335L139.202 242.665L138.178 239.782L136.293 240.451ZM138.26 244H139.552V242H138.26V244ZM140.491 242.655L136.752 232.473L134.875 233.163L138.613 243.345L140.491 242.655ZM135.814 231.818H134.541V233.818H135.814V231.818ZM133.602 232.473L129.863 242.655L131.741 243.345L135.48 233.163L133.602 232.473ZM130.802 244H132.095V242H130.802V244ZM134.449 239.357L136.08 234.764L134.195 234.094L132.564 238.688L134.449 239.357ZM135.137 235.429H135.217V233.429H135.137V235.429ZM134.275 234.764L135.905 239.357L137.79 238.688L136.159 234.094L134.275 234.764ZM136.848 238.023H133.507V240.023H136.848V238.023ZM142.152 235.364H143.152V234.364H142.152V235.364ZM140.979 235.364V234.364H139.979V235.364H140.979ZM145.712 241.707V240.707H145.072L144.804 241.288L145.712 241.707ZM145.792 241.707H146.792V240.707H145.792V241.707ZM145.792 243H144.792V244H145.792V243ZM146.965 243V244H147.965V243H146.965ZM146.965 235.364H147.965V234.364H146.965V235.364ZM145.792 235.364V234.364H144.792V235.364H145.792ZM144.792 239.878C144.792 240.315 144.635 240.564 144.468 240.714C144.278 240.884 144.027 240.966 143.823 240.966V242.966C145.144 242.966 146.792 241.962 146.792 239.878H144.792ZM143.823 240.966C143.591 240.966 143.446 240.887 143.355 240.788C143.258 240.684 143.152 240.484 143.152 240.136H141.152C141.152 240.902 141.395 241.617 141.89 242.15C142.389 242.687 143.08 242.966 143.823 242.966V240.966ZM143.152 240.136V235.364H141.152V240.136H143.152ZM142.152 234.364H140.979V236.364H142.152V234.364ZM139.979 235.364V240.216H141.979V235.364H139.979ZM139.979 240.216C139.979 241.361 140.284 242.351 140.938 243.064C141.6 243.787 142.506 244.099 143.445 244.099V242.099C142.952 242.099 142.625 241.945 142.412 241.713C142.191 241.471 141.979 241.02 141.979 240.216H139.979ZM143.445 244.099C145.015 244.099 146.11 243.231 146.62 242.126L144.804 241.288C144.598 241.735 144.181 242.099 143.445 242.099V244.099ZM145.712 242.707H145.792V240.707H145.712V242.707ZM144.792 241.707V243H146.792V241.707H144.792ZM145.792 244H146.965V242H145.792V244ZM147.965 243V235.364H145.965V243H147.965ZM146.965 234.364H145.792V236.364H146.965V234.364ZM144.792 235.364V239.878H146.792V235.364H144.792ZM155.497 235.364H156.497V234.364H155.497V235.364ZM154.364 235.364V234.364H153.364V235.364H154.364ZM154.364 236.577V237.577H155.364V236.577H154.364ZM154.244 236.577L153.406 237.122L153.702 237.577H154.244V236.577ZM154.225 241.588V240.588H153.668L153.374 241.062L154.225 241.588ZM154.324 241.588H155.324V240.588H154.324V241.588ZM150.009 243.835L150.812 243.24L150.232 242.457L149.434 243.017L150.009 243.835ZM149.074 244.491L148.499 243.673L147.74 244.206L148.215 245.004L149.074 244.491ZM152.196 247.023C153.244 247.023 154.31 246.786 155.139 246.154C156.008 245.491 156.497 244.483 156.497 243.219H154.497C154.497 243.923 154.25 244.317 153.926 244.564C153.562 244.842 152.978 245.023 152.196 245.023V247.023ZM156.497 243.219V235.364H154.497V243.219H156.497ZM155.497 234.364H154.364V236.364H155.497V234.364ZM153.364 235.364V236.577H155.364V235.364H153.364ZM154.364 235.577H154.244V237.577H154.364V235.577ZM155.083 236.032C154.988 235.886 154.714 235.399 154.229 234.999C153.709 234.571 152.991 234.264 152.017 234.264V236.264C152.535 236.264 152.801 236.415 152.957 236.543C153.149 236.701 153.242 236.87 153.406 237.122L155.083 236.032ZM152.017 234.264C150.769 234.264 149.671 234.769 148.901 235.676C148.142 236.569 147.756 237.785 147.756 239.142H149.756C149.756 238.153 150.036 237.429 150.425 236.97C150.803 236.525 151.337 236.264 152.017 236.264V234.264ZM147.756 239.142C147.756 240.528 148.163 241.721 148.943 242.579C149.73 243.443 150.819 243.881 151.997 243.881V241.881C151.327 241.881 150.794 241.642 150.423 241.233C150.045 240.818 149.756 240.142 149.756 239.142H147.756ZM151.997 243.881C152.959 243.881 153.675 243.591 154.199 243.171C154.694 242.774 154.963 242.296 155.075 242.114L153.374 241.062C153.228 241.298 153.129 241.466 152.948 241.611C152.796 241.733 152.527 241.881 151.997 241.881V243.881ZM154.225 242.588H154.324V240.588H154.225V242.588ZM153.324 241.588V243.139H155.324V241.588H153.324ZM153.324 243.139C153.324 243.519 153.204 243.675 153.097 243.761C152.955 243.875 152.674 243.989 152.196 243.989V245.989C152.951 245.989 153.734 245.814 154.348 245.321C154.997 244.801 155.324 244.032 155.324 243.139H153.324ZM152.196 243.989C151.695 243.989 151.43 243.862 151.276 243.753C151.095 243.626 150.987 243.475 150.812 243.24L149.205 244.431C149.344 244.618 149.635 245.044 150.124 245.388C150.638 245.75 151.311 245.989 152.196 245.989V243.989ZM149.434 243.017L148.499 243.673L149.649 245.31L150.583 244.654L149.434 243.017ZM148.215 245.004C148.879 246.118 150.152 247.023 152.196 247.023V245.023C150.83 245.023 150.223 244.466 149.933 243.979L148.215 245.004ZM152.156 240.827C151.701 240.827 151.446 240.669 151.279 240.455C151.086 240.208 150.929 239.775 150.929 239.122H148.929C148.929 240.06 149.15 240.979 149.703 241.687C150.282 242.427 151.14 242.827 152.156 242.827V240.827ZM150.929 239.122C150.929 238.488 151.082 238.015 151.291 237.728C151.473 237.479 151.73 237.318 152.156 237.318V235.318C151.091 235.318 150.234 235.784 149.676 236.549C149.144 237.276 148.929 238.205 148.929 239.122H150.929ZM152.156 237.318C152.569 237.318 152.813 237.467 152.985 237.698C153.184 237.966 153.344 238.433 153.344 239.122H155.344C155.344 238.161 155.126 237.226 154.589 236.504C154.025 235.746 153.176 235.318 152.156 235.318V237.318ZM153.344 239.122C153.344 239.831 153.179 240.257 152.998 240.485C152.842 240.68 152.6 240.827 152.156 240.827V242.827C153.124 242.827 153.977 242.466 154.562 241.731C155.121 241.03 155.344 240.103 155.344 239.122H153.344Z" fill="#718EBF" mask="url(#path-4-inside-2_105_384)"/>
<mask id="path-6-inside-3_105_384" fill="white">
<path d="M225.801 235.364H226.994C226.94 233.827 225.523 232.679 223.554 232.679C221.605 232.679 220.074 233.812 220.074 235.523C220.074 236.895 221.068 237.71 222.659 238.168L223.912 238.526C224.986 238.824 225.94 239.202 225.94 240.216C225.94 241.33 224.866 242.065 223.455 242.065C222.241 242.065 221.168 241.528 221.068 240.375H219.795C219.915 242.045 221.267 243.179 223.455 243.179C225.801 243.179 227.134 241.886 227.134 240.236C227.134 238.327 225.324 237.71 224.27 237.432L223.236 237.153C222.48 236.955 221.267 236.557 221.267 235.463C221.267 234.489 222.162 233.773 223.514 233.773C224.747 233.773 225.682 234.359 225.801 235.364ZM232.203 243.159C233.754 243.159 234.888 242.384 235.246 241.23L234.112 240.912C233.814 241.707 233.123 242.105 232.203 242.105C230.826 242.105 229.877 241.215 229.822 239.58H235.365V239.082C235.365 236.239 233.675 235.264 232.084 235.264C230.016 235.264 228.644 236.895 228.644 239.241C228.644 241.588 229.996 243.159 232.203 243.159ZM229.822 238.565C229.901 237.377 230.742 236.318 232.084 236.318C233.357 236.318 234.172 237.273 234.172 238.565H229.822ZM237.15 245.864H238.323V241.827H238.423C238.681 242.244 239.178 243.159 240.65 243.159C242.559 243.159 243.892 241.628 243.892 239.202C243.892 236.795 242.559 235.264 240.63 235.264C239.139 235.264 238.681 236.179 238.423 236.577H238.284V235.364H237.15V245.864ZM238.303 239.182C238.303 237.472 239.059 236.318 240.491 236.318C241.982 236.318 242.718 237.571 242.718 239.182C242.718 240.812 241.963 242.105 240.491 242.105C239.079 242.105 238.303 240.912 238.303 239.182Z"/>
</mask>
<path d="M225.801 235.364H226.994C226.94 233.827 225.523 232.679 223.554 232.679C221.605 232.679 220.074 233.812 220.074 235.523C220.074 236.895 221.068 237.71 222.659 238.168L223.912 238.526C224.986 238.824 225.94 239.202 225.94 240.216C225.94 241.33 224.866 242.065 223.455 242.065C222.241 242.065 221.168 241.528 221.068 240.375H219.795C219.915 242.045 221.267 243.179 223.455 243.179C225.801 243.179 227.134 241.886 227.134 240.236C227.134 238.327 225.324 237.71 224.27 237.432L223.236 237.153C222.48 236.955 221.267 236.557 221.267 235.463C221.267 234.489 222.162 233.773 223.514 233.773C224.747 233.773 225.682 234.359 225.801 235.364ZM232.203 243.159C233.754 243.159 234.888 242.384 235.246 241.23L234.112 240.912C233.814 241.707 233.123 242.105 232.203 242.105C230.826 242.105 229.877 241.215 229.822 239.58H235.365V239.082C235.365 236.239 233.675 235.264 232.084 235.264C230.016 235.264 228.644 236.895 228.644 239.241C228.644 241.588 229.996 243.159 232.203 243.159ZM229.822 238.565C229.901 237.377 230.742 236.318 232.084 236.318C233.357 236.318 234.172 237.273 234.172 238.565H229.822ZM237.15 245.864H238.323V241.827H238.423C238.681 242.244 239.178 243.159 240.65 243.159C242.559 243.159 243.892 241.628 243.892 239.202C243.892 236.795 242.559 235.264 240.63 235.264C239.139 235.264 238.681 236.179 238.423 236.577H238.284V235.364H237.15V245.864ZM238.303 239.182C238.303 237.472 239.059 236.318 240.491 236.318C241.982 236.318 242.718 237.571 242.718 239.182C242.718 240.812 241.963 242.105 240.491 242.105C239.079 242.105 238.303 240.912 238.303 239.182Z" fill="#718EBF"/>
<path d="M225.801 235.364L224.808 235.482L224.913 236.364H225.801V235.364ZM226.994 235.364V236.364H228.031L227.994 235.328L226.994 235.364ZM222.659 238.168L222.383 239.129L222.384 239.129L222.659 238.168ZM223.912 238.526L223.637 239.487L223.644 239.489L223.912 238.526ZM221.068 240.375L222.064 240.289L221.986 239.375H221.068V240.375ZM219.795 240.375V239.375H218.721L218.798 240.446L219.795 240.375ZM224.27 237.432L224.01 238.397L224.014 238.399L224.27 237.432ZM223.236 237.153L223.496 236.188L223.49 236.186L223.236 237.153ZM225.801 236.364H226.994V234.364H225.801V236.364ZM227.994 235.328C227.914 233.079 225.868 231.679 223.554 231.679V233.679C225.178 233.679 225.966 234.576 225.995 235.399L227.994 235.328ZM223.554 231.679C221.281 231.679 219.074 233.057 219.074 235.523H221.074C221.074 234.568 221.93 233.679 223.554 233.679V231.679ZM219.074 235.523C219.074 236.483 219.435 237.289 220.075 237.907C220.685 238.497 221.505 238.876 222.383 239.129L222.935 237.207C222.223 237.002 221.749 236.744 221.465 236.469C221.21 236.223 221.074 235.934 221.074 235.523H219.074ZM222.384 239.129L223.637 239.487L224.187 237.564L222.934 237.206L222.384 239.129ZM223.644 239.489C224.181 239.638 224.539 239.772 224.759 239.924C224.856 239.991 224.894 240.041 224.91 240.069C224.922 240.089 224.94 240.128 224.94 240.216H226.94C226.94 239.317 226.484 238.686 225.899 238.28C225.373 237.916 224.717 237.711 224.18 237.562L223.644 239.489ZM224.94 240.216C224.94 240.413 224.859 240.59 224.639 240.749C224.401 240.922 223.998 241.065 223.455 241.065V243.065C224.323 243.065 225.163 242.84 225.815 242.367C226.485 241.88 226.94 241.132 226.94 240.216H224.94ZM223.455 241.065C222.98 241.065 222.612 240.958 222.385 240.812C222.189 240.686 222.085 240.53 222.064 240.289L220.072 240.461C220.151 241.373 220.633 242.063 221.303 242.494C221.94 242.904 222.716 243.065 223.455 243.065V241.065ZM221.068 239.375H219.795V241.375H221.068V239.375ZM218.798 240.446C218.877 241.551 219.375 242.516 220.232 243.19C221.074 243.852 222.194 244.179 223.455 244.179V242.179C222.528 242.179 221.877 241.939 221.467 241.617C221.071 241.306 220.833 240.869 220.793 240.304L218.798 240.446ZM223.455 244.179C224.807 244.179 225.973 243.805 226.82 243.09C227.677 242.365 228.134 241.347 228.134 240.236H226.134C226.134 240.775 225.924 241.228 225.528 241.563C225.122 241.906 224.449 242.179 223.455 242.179V244.179ZM228.134 240.236C228.134 238.9 227.475 237.991 226.688 237.415C225.943 236.871 225.072 236.609 224.525 236.465L224.014 238.399C224.522 238.533 225.082 238.719 225.506 239.029C225.888 239.308 226.134 239.662 226.134 240.236H228.134ZM224.53 236.466L223.496 236.188L222.976 238.119L224.01 238.397L224.53 236.466ZM223.49 236.186C223.123 236.09 222.768 235.973 222.517 235.808C222.294 235.661 222.267 235.562 222.267 235.463H220.267C220.267 236.457 220.847 237.104 221.419 237.48C221.963 237.837 222.593 238.018 222.981 238.12L223.49 236.186ZM222.267 235.463C222.267 235.311 222.326 235.173 222.492 235.046C222.673 234.908 223.006 234.773 223.514 234.773V232.773C222.67 232.773 221.88 232.996 221.276 233.459C220.656 233.933 220.267 234.64 220.267 235.463H222.267ZM223.514 234.773C224.492 234.773 224.774 235.196 224.808 235.482L226.794 235.246C226.589 233.523 225.002 232.773 223.514 232.773V234.773ZM235.246 241.23L236.201 241.527L236.506 240.545L235.516 240.267L235.246 241.23ZM234.112 240.912L234.383 239.949L233.499 239.701L233.176 240.561L234.112 240.912ZM229.822 239.58V238.58H228.788L228.822 239.613L229.822 239.58ZM235.365 239.58V240.58H236.365V239.58H235.365ZM229.822 238.565L228.824 238.499L228.753 239.565H229.822V238.565ZM234.172 238.565V239.565H235.172V238.565H234.172ZM232.203 244.159C234.089 244.159 235.685 243.19 236.201 241.527L234.291 240.934C234.091 241.577 233.42 242.159 232.203 242.159V244.159ZM235.516 240.267L234.383 239.949L233.842 241.875L234.976 242.193L235.516 240.267ZM233.176 240.561C233.055 240.883 232.802 241.105 232.203 241.105V243.105C233.444 243.105 234.573 242.532 235.049 241.263L233.176 240.561ZM232.203 241.105C231.736 241.105 231.43 240.96 231.233 240.758C231.03 240.55 230.843 240.179 230.821 239.546L228.822 239.613C228.856 240.616 229.17 241.507 229.801 242.154C230.436 242.806 231.293 243.105 232.203 243.105V241.105ZM229.822 240.58H235.365V238.58H229.822V240.58ZM236.365 239.58V239.082H234.365V239.58H236.365ZM236.365 239.082C236.365 237.457 235.876 236.217 235.015 235.387C234.166 234.568 233.075 234.264 232.084 234.264V236.264C232.684 236.264 233.233 236.447 233.627 236.827C234.009 237.195 234.365 237.864 234.365 239.082H236.365ZM232.084 234.264C230.768 234.264 229.627 234.792 228.829 235.722C228.043 236.638 227.644 237.878 227.644 239.241H229.644C229.644 238.258 229.93 237.51 230.347 237.024C230.753 236.552 231.332 236.264 232.084 236.264V234.264ZM227.644 239.241C227.644 240.602 228.037 241.838 228.851 242.747C229.675 243.669 230.848 244.159 232.203 244.159V242.159C231.351 242.159 230.744 241.864 230.341 241.413C229.926 240.95 229.644 240.227 229.644 239.241H227.644ZM230.82 238.632C230.872 237.846 231.383 237.318 232.084 237.318V235.318C230.1 235.318 228.931 236.908 228.824 238.499L230.82 238.632ZM232.084 237.318C232.455 237.318 232.702 237.45 232.865 237.629C233.036 237.817 233.172 238.127 233.172 238.565H235.172C235.172 237.711 234.901 236.897 234.346 236.285C233.782 235.664 232.986 235.318 232.084 235.318V237.318ZM234.172 237.565H229.822V239.565H234.172V237.565ZM237.15 245.864H236.15V246.864H237.15V245.864ZM238.323 245.864V246.864H239.323V245.864H238.323ZM238.323 241.827V240.827H237.323V241.827H238.323ZM238.423 241.827L239.273 241.3L238.98 240.827H238.423V241.827ZM238.423 236.577V237.577H238.965L239.261 237.122L238.423 236.577ZM238.284 236.577H237.284V237.577H238.284V236.577ZM238.284 235.364H239.284V234.364H238.284V235.364ZM237.15 235.364V234.364H236.15V235.364H237.15ZM237.15 246.864H238.323V244.864H237.15V246.864ZM239.323 245.864V241.827H237.323V245.864H239.323ZM238.323 242.827H238.423V240.827H238.323V242.827ZM237.572 242.353C237.683 242.532 237.955 243.016 238.445 243.421C238.966 243.85 239.683 244.159 240.65 244.159V242.159C240.145 242.159 239.878 242.01 239.718 241.878C239.527 241.721 239.421 241.539 239.273 241.3L237.572 242.353ZM240.65 244.159C241.893 244.159 242.988 243.651 243.755 242.73C244.509 241.825 244.892 240.591 244.892 239.202H242.892C242.892 240.238 242.607 240.983 242.218 241.45C241.842 241.902 241.316 242.159 240.65 242.159V244.159ZM244.892 239.202C244.892 237.82 244.508 236.59 243.75 235.687C242.979 234.77 241.879 234.264 240.63 234.264V236.264C241.31 236.264 241.841 236.524 242.218 236.974C242.608 237.438 242.892 238.177 242.892 239.202H244.892ZM240.63 234.264C239.656 234.264 238.94 234.572 238.423 235.004C237.945 235.404 237.671 235.898 237.584 236.032L239.261 237.122C239.433 236.858 239.517 236.696 239.705 236.539C239.854 236.414 240.113 236.264 240.63 236.264V234.264ZM238.423 235.577H238.284V237.577H238.423V235.577ZM239.284 236.577V235.364H237.284V236.577H239.284ZM238.284 234.364H237.15V236.364H238.284V234.364ZM236.15 235.364V245.864H238.15V235.364H236.15ZM239.303 239.182C239.303 238.456 239.466 237.973 239.667 237.7C239.838 237.466 240.08 237.318 240.491 237.318V235.318C239.47 235.318 238.618 235.747 238.054 236.518C237.518 237.248 237.303 238.198 237.303 239.182H239.303ZM240.491 237.318C240.916 237.318 241.17 237.477 241.352 237.73C241.563 238.022 241.718 238.511 241.718 239.182H243.718C243.718 238.242 243.506 237.299 242.975 236.562C242.417 235.786 241.558 235.318 240.491 235.318V237.318ZM241.718 239.182C241.718 239.86 241.559 240.368 241.34 240.677C241.147 240.95 240.89 241.105 240.491 241.105V243.105C241.564 243.105 242.42 242.614 242.973 241.833C243.5 241.088 243.718 240.135 243.718 239.182H241.718ZM240.491 241.105C240.106 241.105 239.862 240.961 239.679 240.708C239.47 240.417 239.303 239.915 239.303 239.182H237.303C237.303 240.179 237.525 241.138 238.056 241.876C238.615 242.652 239.464 243.105 240.491 243.105V241.105Z" fill="#718EBF" mask="url(#path-6-inside-3_105_384)"/>
<mask id="path-8-inside-4_105_384" fill="white">
<path d="M306.824 237.909C306.824 234.688 304.935 232.679 302.33 232.679C299.724 232.679 297.835 234.688 297.835 237.909C297.835 241.131 299.724 243.139 302.33 243.139C304.935 243.139 306.824 241.131 306.824 237.909ZM305.631 237.909C305.631 240.554 304.179 241.986 302.33 241.986C300.48 241.986 299.028 240.554 299.028 237.909C299.028 235.264 300.48 233.832 302.33 233.832C304.179 233.832 305.631 235.264 305.631 237.909ZM311.84 243.159C313.531 243.159 314.644 242.125 314.843 240.773H313.67C313.451 241.608 312.755 242.105 311.84 242.105C310.448 242.105 309.553 240.952 309.553 239.182C309.553 237.452 310.468 236.318 311.84 236.318C312.874 236.318 313.491 236.955 313.67 237.651H314.843C314.644 236.219 313.431 235.264 311.82 235.264C309.752 235.264 308.38 236.895 308.38 239.222C308.38 241.509 309.692 243.159 311.84 243.159ZM319.879 235.364H318.249V233.534H317.075V235.364H315.922V236.358H317.075V241.131C317.075 242.463 318.149 243.099 319.143 243.099C319.581 243.099 319.859 243.02 320.018 242.96L319.78 241.906C319.68 241.926 319.521 241.966 319.263 241.966C318.746 241.966 318.249 241.807 318.249 240.812V236.358H319.879V235.364Z"/>
</mask>
<path d="M306.824 237.909C306.824 234.688 304.935 232.679 302.33 232.679C299.724 232.679 297.835 234.688 297.835 237.909C297.835 241.131 299.724 243.139 302.33 243.139C304.935 243.139 306.824 241.131 306.824 237.909ZM305.631 237.909C305.631 240.554 304.179 241.986 302.33 241.986C300.48 241.986 299.028 240.554 299.028 237.909C299.028 235.264 300.48 233.832 302.33 233.832C304.179 233.832 305.631 235.264 305.631 237.909ZM311.84 243.159C313.531 243.159 314.644 242.125 314.843 240.773H313.67C313.451 241.608 312.755 242.105 311.84 242.105C310.448 242.105 309.553 240.952 309.553 239.182C309.553 237.452 310.468 236.318 311.84 236.318C312.874 236.318 313.491 236.955 313.67 237.651H314.843C314.644 236.219 313.431 235.264 311.82 235.264C309.752 235.264 308.38 236.895 308.38 239.222C308.38 241.509 309.692 243.159 311.84 243.159ZM319.879 235.364H318.249V233.534H317.075V235.364H315.922V236.358H317.075V241.131C317.075 242.463 318.149 243.099 319.143 243.099C319.581 243.099 319.859 243.02 320.018 242.96L319.78 241.906C319.68 241.926 319.521 241.966 319.263 241.966C318.746 241.966 318.249 241.807 318.249 240.812V236.358H319.879V235.364Z" fill="#718EBF"/>
<path d="M307.824 237.909C307.824 236.105 307.293 234.547 306.304 233.425C305.306 232.293 303.904 231.679 302.33 231.679V233.679C303.36 233.679 304.205 234.069 304.804 234.747C305.41 235.435 305.824 236.491 305.824 237.909H307.824ZM302.33 231.679C300.755 231.679 299.353 232.293 298.355 233.425C297.366 234.547 296.835 236.105 296.835 237.909H298.835C298.835 236.491 299.249 235.435 299.855 234.747C300.454 234.069 301.299 233.679 302.33 233.679V231.679ZM296.835 237.909C296.835 239.713 297.366 241.272 298.355 242.394C299.353 243.525 300.755 244.139 302.33 244.139V242.139C301.299 242.139 300.454 241.749 299.855 241.071C299.249 240.383 298.835 239.327 298.835 237.909H296.835ZM302.33 244.139C303.904 244.139 305.306 243.525 306.304 242.394C307.293 241.272 307.824 239.713 307.824 237.909H305.824C305.824 239.327 305.41 240.383 304.804 241.071C304.205 241.749 303.36 242.139 302.33 242.139V244.139ZM304.631 237.909C304.631 239.053 304.318 239.821 303.917 240.286C303.524 240.741 302.982 240.986 302.33 240.986V242.986C303.527 242.986 304.635 242.515 305.431 241.593C306.217 240.681 306.631 239.41 306.631 237.909H304.631ZM302.33 240.986C301.677 240.986 301.135 240.741 300.743 240.286C300.341 239.821 300.028 239.053 300.028 237.909H298.028C298.028 239.41 298.442 240.681 299.228 241.593C300.024 242.515 301.132 242.986 302.33 242.986V240.986ZM300.028 237.909C300.028 236.765 300.341 235.998 300.743 235.532C301.135 235.077 301.677 234.832 302.33 234.832V232.832C301.132 232.832 300.024 233.303 299.228 234.226C298.442 235.137 298.028 236.408 298.028 237.909H300.028ZM302.33 234.832C302.982 234.832 303.524 235.077 303.917 235.532C304.318 235.998 304.631 236.765 304.631 237.909H306.631C306.631 236.408 306.217 235.137 305.431 234.226C304.635 233.303 303.527 232.832 302.33 232.832V234.832ZM314.843 240.773L315.832 240.918L316.001 239.773H314.843V240.773ZM313.67 240.773V239.773H312.898L312.702 240.519L313.67 240.773ZM313.67 237.651L312.701 237.9L312.894 238.651H313.67V237.651ZM314.843 237.651V238.651H315.992L315.834 237.513L314.843 237.651ZM311.84 244.159C313.993 244.159 315.557 242.794 315.832 240.918L313.854 240.627C313.732 241.456 313.068 242.159 311.84 242.159V244.159ZM314.843 239.773H313.67V241.773H314.843V239.773ZM312.702 240.519C312.612 240.866 312.352 241.105 311.84 241.105V243.105C313.157 243.105 314.29 242.35 314.637 241.026L312.702 240.519ZM311.84 241.105C311.449 241.105 311.169 240.956 310.963 240.692C310.738 240.404 310.553 239.909 310.553 239.182H308.553C308.553 240.224 308.816 241.192 309.386 241.922C309.975 242.677 310.839 243.105 311.84 243.105V241.105ZM310.553 239.182C310.553 238.484 310.738 238.007 310.963 237.726C311.172 237.466 311.455 237.318 311.84 237.318V235.318C310.853 235.318 309.993 235.738 309.402 236.476C308.826 237.195 308.553 238.149 308.553 239.182H310.553ZM311.84 237.318C312.142 237.318 312.33 237.407 312.449 237.502C312.575 237.604 312.662 237.746 312.701 237.9L314.638 237.402C314.353 236.294 313.361 235.318 311.84 235.318V237.318ZM313.67 238.651H314.843V236.651H313.67V238.651ZM315.834 237.513C315.555 235.504 313.842 234.264 311.82 234.264V236.264C313.02 236.264 313.734 236.933 313.853 237.788L315.834 237.513ZM311.82 234.264C310.504 234.264 309.364 234.792 308.567 235.718C307.781 236.631 307.38 237.866 307.38 239.222H309.38C309.38 238.25 309.665 237.507 310.082 237.023C310.488 236.552 311.068 236.264 311.82 236.264V234.264ZM307.38 239.222C307.38 240.55 307.762 241.781 308.544 242.697C309.341 243.63 310.49 244.159 311.84 244.159V242.159C311.043 242.159 310.462 241.863 310.065 241.398C309.655 240.918 309.38 240.18 309.38 239.222H307.38ZM319.879 235.364H320.879V234.364H319.879V235.364ZM318.249 235.364H317.249V236.364H318.249V235.364ZM318.249 233.534H319.249V232.534H318.249V233.534ZM317.075 233.534V232.534H316.075V233.534H317.075ZM317.075 235.364V236.364H318.075V235.364H317.075ZM315.922 235.364V234.364H314.922V235.364H315.922ZM315.922 236.358H314.922V237.358H315.922V236.358ZM317.075 236.358H318.075V235.358H317.075V236.358ZM320.018 242.96L320.37 243.897L321.186 243.59L320.994 242.739L320.018 242.96ZM319.78 241.906L320.755 241.685L320.54 240.734L319.584 240.926L319.78 241.906ZM318.249 236.358V235.358H317.249V236.358H318.249ZM319.879 236.358V237.358H320.879V236.358H319.879ZM319.879 234.364H318.249V236.364H319.879V234.364ZM319.249 235.364V233.534H317.249V235.364H319.249ZM318.249 232.534H317.075V234.534H318.249V232.534ZM316.075 233.534V235.364H318.075V233.534H316.075ZM317.075 234.364H315.922V236.364H317.075V234.364ZM314.922 235.364V236.358H316.922V235.364H314.922ZM315.922 237.358H317.075V235.358H315.922V237.358ZM316.075 236.358V241.131H318.075V236.358H316.075ZM316.075 241.131C316.075 242.095 316.477 242.869 317.098 243.385C317.695 243.879 318.447 244.099 319.143 244.099V242.099C318.845 242.099 318.564 242.001 318.375 241.845C318.211 241.709 318.075 241.499 318.075 241.131H316.075ZM319.143 244.099C319.712 244.099 320.109 243.994 320.37 243.897L319.667 242.024C319.61 242.045 319.45 242.099 319.143 242.099V244.099ZM320.994 242.739L320.755 241.685L318.805 242.127L319.043 243.181L320.994 242.739ZM319.584 240.926C319.505 240.941 319.486 240.947 319.435 240.954C319.395 240.96 319.339 240.966 319.263 240.966V242.966C319.635 242.966 319.889 242.904 319.976 242.887L319.584 240.926ZM319.263 240.966C319.179 240.966 319.142 240.959 319.133 240.957C319.131 240.956 319.17 240.966 319.217 241.007C319.24 241.026 319.257 241.047 319.268 241.063C319.278 241.079 319.28 241.087 319.277 241.079C319.27 241.06 319.249 240.983 319.249 240.812H317.249C317.249 241.458 317.41 242.087 317.906 242.517C318.376 242.925 318.938 242.966 319.263 242.966V240.966ZM319.249 240.812V236.358H317.249V240.812H319.249ZM318.249 237.358H319.879V235.358H318.249V237.358ZM320.879 236.358V235.364H318.879V236.358H320.879Z" fill="#718EBF" mask="url(#path-8-inside-4_105_384)"/>
<mask id="path-10-inside-5_105_384" fill="white">
<path d="M385.307 232.818H384.094V240.832H383.994L378.426 232.818H377.233V243H378.466V235.006H378.565L384.114 243H385.307V232.818ZM390.717 243.159C392.785 243.159 394.177 241.588 394.177 239.222C394.177 236.835 392.785 235.264 390.717 235.264C388.649 235.264 387.257 236.835 387.257 239.222C387.257 241.588 388.649 243.159 390.717 243.159ZM390.717 242.105C389.146 242.105 388.43 240.753 388.43 239.222C388.43 237.69 389.146 236.318 390.717 236.318C392.288 236.318 393.004 237.69 393.004 239.222C393.004 240.753 392.288 242.105 390.717 242.105ZM401.939 235.364H400.667L398.559 241.449H398.479L396.371 235.364H395.098L397.922 243H399.115L401.939 235.364Z"/>
</mask>
<path d="M385.307 232.818H384.094V240.832H383.994L378.426 232.818H377.233V243H378.466V235.006H378.565L384.114 243H385.307V232.818ZM390.717 243.159C392.785 243.159 394.177 241.588 394.177 239.222C394.177 236.835 392.785 235.264 390.717 235.264C388.649 235.264 387.257 236.835 387.257 239.222C387.257 241.588 388.649 243.159 390.717 243.159ZM390.717 242.105C389.146 242.105 388.43 240.753 388.43 239.222C388.43 237.69 389.146 236.318 390.717 236.318C392.288 236.318 393.004 237.69 393.004 239.222C393.004 240.753 392.288 242.105 390.717 242.105ZM401.939 235.364H400.667L398.559 241.449H398.479L396.371 235.364H395.098L397.922 243H399.115L401.939 235.364Z" fill="#718EBF"/>
<path d="M385.307 232.818H386.307V231.818H385.307V232.818ZM384.094 232.818V231.818H383.094V232.818H384.094ZM384.094 240.832V241.832H385.094V240.832H384.094ZM383.994 240.832L383.173 241.403L383.471 241.832H383.994V240.832ZM378.426 232.818L379.247 232.248L378.949 231.818H378.426V232.818ZM377.233 232.818V231.818H376.233V232.818H377.233ZM377.233 243H376.233V244H377.233V243ZM378.466 243V244H379.466V243H378.466ZM378.466 235.006V234.006H377.466V235.006H378.466ZM378.565 235.006L379.387 234.436L379.089 234.006H378.565V235.006ZM384.114 243L383.292 243.57L383.59 244H384.114V243ZM385.307 243V244H386.307V243H385.307ZM385.307 231.818H384.094V233.818H385.307V231.818ZM383.094 232.818V240.832H385.094V232.818H383.094ZM384.094 239.832H383.994V241.832H384.094V239.832ZM384.816 240.262L379.247 232.248L377.605 233.389L383.173 241.403L384.816 240.262ZM378.426 231.818H377.233V233.818H378.426V231.818ZM376.233 232.818V243H378.233V232.818H376.233ZM377.233 244H378.466V242H377.233V244ZM379.466 243V235.006H377.466V243H379.466ZM378.466 236.006H378.565V234.006H378.466V236.006ZM377.744 235.576L383.292 243.57L384.935 242.43L379.387 234.436L377.744 235.576ZM384.114 244H385.307V242H384.114V244ZM386.307 243V232.818H384.307V243H386.307ZM390.717 244.159C392.021 244.159 393.165 243.656 393.973 242.739C394.771 241.833 395.177 240.597 395.177 239.222H393.177C393.177 240.212 392.887 240.946 392.472 241.417C392.067 241.877 391.482 242.159 390.717 242.159V244.159ZM395.177 239.222C395.177 237.838 394.772 236.598 393.974 235.688C393.166 234.768 392.021 234.264 390.717 234.264V236.264C391.482 236.264 392.066 236.546 392.471 237.008C392.886 237.481 393.177 238.219 393.177 239.222H395.177ZM390.717 234.264C389.414 234.264 388.268 234.768 387.46 235.688C386.662 236.598 386.257 237.838 386.257 239.222H388.257C388.257 238.219 388.548 237.481 388.963 237.008C389.368 236.546 389.953 236.264 390.717 236.264V234.264ZM386.257 239.222C386.257 240.597 386.663 241.833 387.461 242.739C388.269 243.656 389.414 244.159 390.717 244.159V242.159C389.952 242.159 389.367 241.877 388.962 241.417C388.547 240.946 388.257 240.212 388.257 239.222H386.257ZM390.717 241.105C390.263 241.105 389.993 240.93 389.8 240.659C389.58 240.348 389.43 239.85 389.43 239.222H387.43C387.43 240.125 387.639 241.068 388.169 241.816C388.727 242.604 389.6 243.105 390.717 243.105V241.105ZM389.43 239.222C389.43 238.593 389.58 238.088 389.803 237.77C389.998 237.493 390.269 237.318 390.717 237.318V235.318C389.594 235.318 388.722 235.83 388.166 236.621C387.639 237.372 387.43 238.319 387.43 239.222H389.43ZM390.717 237.318C391.165 237.318 391.436 237.493 391.631 237.77C391.854 238.088 392.004 238.593 392.004 239.222H394.004C394.004 238.319 393.796 237.372 393.268 236.621C392.712 235.83 391.84 235.318 390.717 235.318V237.318ZM392.004 239.222C392.004 239.85 391.855 240.348 391.634 240.659C391.442 240.93 391.171 241.105 390.717 241.105V243.105C391.834 243.105 392.707 242.604 393.266 241.816C393.796 241.068 394.004 240.125 394.004 239.222H392.004ZM401.939 235.364L402.877 235.71L403.375 234.364H401.939V235.364ZM400.667 235.364V234.364H399.955L399.722 235.036L400.667 235.364ZM398.559 241.449V242.449H399.27L399.504 241.776L398.559 241.449ZM398.479 241.449L397.534 241.776L397.767 242.449H398.479V241.449ZM396.371 235.364L397.316 235.036L397.083 234.364H396.371V235.364ZM395.098 235.364V234.364H393.662L394.16 235.71L395.098 235.364ZM397.922 243L396.984 243.347L397.226 244H397.922V243ZM399.115 243V244H399.812L400.053 243.347L399.115 243ZM401.939 234.364H400.667V236.364H401.939V234.364ZM399.722 235.036L397.614 241.122L399.504 241.776L401.611 235.691L399.722 235.036ZM398.559 240.449H398.479V242.449H398.559V240.449ZM399.424 241.122L397.316 235.036L395.426 235.691L397.534 241.776L399.424 241.122ZM396.371 234.364H395.098V236.364H396.371V234.364ZM394.16 235.71L396.984 243.347L398.86 242.653L396.036 235.017L394.16 235.71ZM397.922 244H399.115V242H397.922V244ZM400.053 243.347L402.877 235.71L401.001 235.017L398.177 242.653L400.053 243.347Z" fill="#718EBF" mask="url(#path-10-inside-5_105_384)"/>
<mask id="path-12-inside-6_105_384" fill="white">
<path d="M458.375 243.309C461.477 243.309 463.227 241.38 463.227 238.198C463.227 235.036 461.477 233.127 458.514 233.127H455.233V243.309H458.375ZM456.466 242.215V234.221H458.435C460.821 234.221 462.034 235.732 462.034 238.198C462.034 240.684 460.821 242.215 458.295 242.215H456.466ZM468.338 243.468C469.889 243.468 471.023 242.693 471.381 241.539L470.247 241.221C469.949 242.017 469.258 242.414 468.338 242.414C466.961 242.414 466.011 241.524 465.957 239.889H471.5V239.392C471.5 236.548 469.81 235.573 468.219 235.573C466.151 235.573 464.778 237.204 464.778 239.551C464.778 241.897 466.131 243.468 468.338 243.468ZM465.957 238.875C466.036 237.686 466.876 236.627 468.219 236.627C469.491 236.627 470.307 237.582 470.307 238.875H465.957ZM476.387 243.468C478.077 243.468 479.191 242.434 479.39 241.082H478.217C477.998 241.917 477.302 242.414 476.387 242.414C474.995 242.414 474.1 241.261 474.1 239.491C474.1 237.761 475.015 236.627 476.387 236.627C477.421 236.627 478.038 237.264 478.217 237.96H479.39C479.191 236.528 477.978 235.573 476.367 235.573C474.299 235.573 472.927 237.204 472.927 239.531C472.927 241.818 474.239 243.468 476.387 243.468Z"/>
</mask>
<path d="M458.375 243.309C461.477 243.309 463.227 241.38 463.227 238.198C463.227 235.036 461.477 233.127 458.514 233.127H455.233V243.309H458.375ZM456.466 242.215V234.221H458.435C460.821 234.221 462.034 235.732 462.034 238.198C462.034 240.684 460.821 242.215 458.295 242.215H456.466ZM468.338 243.468C469.889 243.468 471.023 242.693 471.381 241.539L470.247 241.221C469.949 242.017 469.258 242.414 468.338 242.414C466.961 242.414 466.011 241.524 465.957 239.889H471.5V239.392C471.5 236.548 469.81 235.573 468.219 235.573C466.151 235.573 464.778 237.204 464.778 239.551C464.778 241.897 466.131 243.468 468.338 243.468ZM465.957 238.875C466.036 237.686 466.876 236.627 468.219 236.627C469.491 236.627 470.307 237.582 470.307 238.875H465.957ZM476.387 243.468C478.077 243.468 479.191 242.434 479.39 241.082H478.217C477.998 241.917 477.302 242.414 476.387 242.414C474.995 242.414 474.1 241.261 474.1 239.491C474.1 237.761 475.015 236.627 476.387 236.627C477.421 236.627 478.038 237.264 478.217 237.96H479.39C479.191 236.528 477.978 235.573 476.367 235.573C474.299 235.573 472.927 237.204 472.927 239.531C472.927 241.818 474.239 243.468 476.387 243.468Z" fill="#718EBF"/>
<path d="M455.233 233.127V232.127H454.233V233.127H455.233ZM455.233 243.309H454.233V244.309H455.233V243.309ZM456.466 242.215H455.466V243.215H456.466V242.215ZM456.466 234.221V233.221H455.466V234.221H456.466ZM458.375 244.309C460.138 244.309 461.64 243.755 462.694 242.631C463.739 241.516 464.227 239.966 464.227 238.198H462.227C462.227 239.612 461.84 240.618 461.235 241.263C460.639 241.899 459.714 242.309 458.375 242.309V244.309ZM464.227 238.198C464.227 236.439 463.739 234.903 462.716 233.798C461.683 232.683 460.218 232.127 458.514 232.127V234.127C459.774 234.127 460.665 234.527 461.248 235.157C461.841 235.797 462.227 236.796 462.227 238.198H464.227ZM458.514 232.127H455.233V234.127H458.514V232.127ZM454.233 233.127V243.309H456.233V233.127H454.233ZM455.233 244.309H458.375V242.309H455.233V244.309ZM457.466 242.215V234.221H455.466V242.215H457.466ZM456.466 235.221H458.435V233.221H456.466V235.221ZM458.435 235.221C459.407 235.221 460.006 235.521 460.377 235.944C460.767 236.389 461.034 237.116 461.034 238.198H463.034C463.034 236.815 462.695 235.553 461.881 234.626C461.049 233.677 459.848 233.221 458.435 233.221V235.221ZM461.034 238.198C461.034 239.293 460.766 240.025 460.366 240.473C459.983 240.903 459.351 241.215 458.295 241.215V243.215C459.766 243.215 461.003 242.763 461.858 241.805C462.695 240.867 463.034 239.589 463.034 238.198H461.034ZM458.295 241.215H456.466V243.215H458.295V241.215ZM471.381 241.539L472.336 241.836L472.64 240.854L471.651 240.577L471.381 241.539ZM470.247 241.221L470.517 240.258L469.633 240.01L469.311 240.87L470.247 241.221ZM465.957 239.889V238.889H464.923L464.957 239.922L465.957 239.889ZM471.5 239.889V240.889H472.5V239.889H471.5ZM465.957 238.875L464.959 238.808L464.887 239.875H465.957V238.875ZM470.307 238.875V239.875H471.307V238.875H470.307ZM468.338 244.468C470.224 244.468 471.82 243.499 472.336 241.836L470.426 241.243C470.226 241.887 469.555 242.468 468.338 242.468V244.468ZM471.651 240.577L470.517 240.258L469.977 242.184L471.11 242.502L471.651 240.577ZM469.311 240.87C469.19 241.192 468.937 241.414 468.338 241.414V243.414C469.579 243.414 470.708 242.841 471.183 241.572L469.311 240.87ZM468.338 241.414C467.871 241.414 467.564 241.269 467.367 241.067C467.165 240.859 466.977 240.488 466.956 239.855L464.957 239.922C464.991 240.925 465.305 241.817 465.936 242.463C466.571 243.115 467.428 243.414 468.338 243.414V241.414ZM465.957 240.889H471.5V238.889H465.957V240.889ZM472.5 239.889V239.392H470.5V239.889H472.5ZM472.5 239.392C472.5 237.766 472.011 236.526 471.15 235.696C470.301 234.878 469.209 234.573 468.219 234.573V236.573C468.819 236.573 469.368 236.756 469.762 237.136C470.144 237.504 470.5 238.173 470.5 239.392H472.5ZM468.219 234.573C466.902 234.573 465.762 235.101 464.964 236.031C464.178 236.947 463.778 238.187 463.778 239.551H465.778C465.778 238.568 466.065 237.819 466.482 237.333C466.887 236.861 467.467 236.573 468.219 236.573V234.573ZM463.778 239.551C463.778 240.911 464.172 242.147 464.985 243.056C465.81 243.978 466.983 244.468 468.338 244.468V242.468C467.486 242.468 466.879 242.173 466.476 241.723C466.061 241.259 465.778 240.537 465.778 239.551H463.778ZM466.954 238.941C467.007 238.155 467.518 237.627 468.219 237.627V235.627C466.235 235.627 465.065 237.217 464.959 238.808L466.954 238.941ZM468.219 237.627C468.59 237.627 468.837 237.759 468.999 237.938C469.17 238.127 469.307 238.437 469.307 238.875H471.307C471.307 238.02 471.036 237.206 470.481 236.594C469.917 235.973 469.12 235.627 468.219 235.627V237.627ZM470.307 237.875H465.957V239.875H470.307V237.875ZM479.39 241.082L480.379 241.227L480.548 240.082H479.39V241.082ZM478.217 241.082V240.082H477.445L477.249 240.829L478.217 241.082ZM478.217 237.96L477.248 238.209L477.441 238.96H478.217V237.96ZM479.39 237.96V238.96H480.538L480.38 237.822L479.39 237.96ZM476.387 244.468C478.54 244.468 480.103 243.103 480.379 241.227L478.401 240.936C478.279 241.765 477.615 242.468 476.387 242.468V244.468ZM479.39 240.082H478.217V242.082H479.39V240.082ZM477.249 240.829C477.158 241.175 476.899 241.414 476.387 241.414V243.414C477.704 243.414 478.837 242.659 479.184 241.335L477.249 240.829ZM476.387 241.414C475.996 241.414 475.716 241.266 475.51 241.001C475.285 240.713 475.1 240.218 475.1 239.491H473.1C473.1 240.533 473.363 241.501 473.933 242.232C474.522 242.986 475.386 243.414 476.387 243.414V241.414ZM475.1 239.491C475.1 238.793 475.285 238.316 475.51 238.036C475.718 237.775 476.002 237.627 476.387 237.627V235.627C475.4 235.627 474.54 236.047 473.949 236.785C473.373 237.504 473.1 238.459 473.1 239.491H475.1ZM476.387 237.627C476.689 237.627 476.877 237.716 476.996 237.812C477.122 237.913 477.209 238.055 477.248 238.209L479.185 237.711C478.9 236.603 477.908 235.627 476.387 235.627V237.627ZM478.217 238.96H479.39V236.96H478.217V238.96ZM480.38 237.822C480.101 235.813 478.389 234.573 476.367 234.573V236.573C477.567 236.573 478.281 237.243 478.399 238.097L480.38 237.822ZM476.367 234.573C475.051 234.573 473.911 235.101 473.114 236.027C472.327 236.94 471.927 238.175 471.927 239.531H473.927C473.927 238.56 474.212 237.816 474.629 237.332C475.035 236.861 475.615 236.573 476.367 236.573V234.573ZM471.927 239.531C471.927 240.859 472.309 242.09 473.091 243.007C473.888 243.939 475.037 244.468 476.387 244.468V242.468C475.59 242.468 475.008 242.172 474.612 241.708C474.201 241.227 473.927 240.489 473.927 239.531H471.927Z" fill="#718EBF" mask="url(#path-12-inside-6_105_384)"/>
<mask id="path-14-inside-7_105_384" fill="white">
<path d="M537.131 232.818V240.097C537.131 241.364 536.524 242.045 535.46 242.045C534.491 242.045 533.79 241.479 533.79 240.614H532.577C532.577 242.18 533.79 243.139 535.46 243.139C537.23 243.139 538.364 242.05 538.364 240.097V232.818H537.131ZM542.923 243.179C544.255 243.179 544.951 242.463 545.19 241.966H545.249V243H546.423V237.969C546.423 235.543 544.573 235.264 543.599 235.264C542.445 235.264 541.133 235.662 540.536 237.054L541.65 237.452C541.908 236.895 542.52 236.298 543.638 236.298C544.717 236.298 545.249 236.87 545.249 237.849V237.889C545.249 238.456 544.673 238.406 543.281 238.585C541.864 238.769 540.317 239.082 540.317 240.832C540.317 242.324 541.471 243.179 542.923 243.179ZM543.102 242.125C542.167 242.125 541.491 241.707 541.491 240.892C541.491 239.997 542.306 239.719 543.221 239.599C543.718 239.54 545.05 239.401 545.249 239.162V240.236C545.249 241.19 544.494 242.125 543.102 242.125ZM549.737 238.406C549.737 237.074 550.563 236.318 551.686 236.318C552.775 236.318 553.436 237.029 553.436 238.227V243H554.61V238.148C554.61 236.199 553.57 235.264 552.024 235.264C550.871 235.264 550.155 235.781 549.797 236.557H549.698V235.364H548.564V243H549.737V238.406Z"/>
</mask>
<path d="M537.131 232.818V240.097C537.131 241.364 536.524 242.045 535.46 242.045C534.491 242.045 533.79 241.479 533.79 240.614H532.577C532.577 242.18 533.79 243.139 535.46 243.139C537.23 243.139 538.364 242.05 538.364 240.097V232.818H537.131ZM542.923 243.179C544.255 243.179 544.951 242.463 545.19 241.966H545.249V243H546.423V237.969C546.423 235.543 544.573 235.264 543.599 235.264C542.445 235.264 541.133 235.662 540.536 237.054L541.65 237.452C541.908 236.895 542.52 236.298 543.638 236.298C544.717 236.298 545.249 236.87 545.249 237.849V237.889C545.249 238.456 544.673 238.406 543.281 238.585C541.864 238.769 540.317 239.082 540.317 240.832C540.317 242.324 541.471 243.179 542.923 243.179ZM543.102 242.125C542.167 242.125 541.491 241.707 541.491 240.892C541.491 239.997 542.306 239.719 543.221 239.599C543.718 239.54 545.05 239.401 545.249 239.162V240.236C545.249 241.19 544.494 242.125 543.102 242.125ZM549.737 238.406C549.737 237.074 550.563 236.318 551.686 236.318C552.775 236.318 553.436 237.029 553.436 238.227V243H554.61V238.148C554.61 236.199 553.57 235.264 552.024 235.264C550.871 235.264 550.155 235.781 549.797 236.557H549.698V235.364H548.564V243H549.737V238.406Z" fill="#718EBF"/>
<path d="M537.131 232.818V231.818H536.131V232.818H537.131ZM533.79 240.614H534.79V239.614H533.79V240.614ZM532.577 240.614V239.614H531.577V240.614H532.577ZM538.364 232.818H539.364V231.818H538.364V232.818ZM536.131 232.818V240.097H538.131V232.818H536.131ZM536.131 240.097C536.131 240.586 536.013 240.806 535.938 240.892C535.884 240.955 535.769 241.045 535.46 241.045V243.045C536.215 243.045 536.936 242.795 537.45 242.201C537.945 241.629 538.131 240.875 538.131 240.097H536.131ZM535.46 241.045C535.165 241.045 534.989 240.96 534.906 240.889C534.837 240.831 534.79 240.754 534.79 240.614H532.79C532.79 241.338 533.093 241.977 533.617 242.419C534.127 242.848 534.786 243.045 535.46 243.045V241.045ZM533.79 239.614H532.577V241.614H533.79V239.614ZM531.577 240.614C531.577 241.676 531.998 242.591 532.744 243.225C533.473 243.846 534.44 244.139 535.46 244.139V242.139C534.81 242.139 534.335 241.953 534.04 241.702C533.762 241.465 533.577 241.117 533.577 240.614H531.577ZM535.46 244.139C536.552 244.139 537.559 243.799 538.291 243.049C539.021 242.302 539.364 241.266 539.364 240.097H537.364C537.364 240.881 537.139 241.366 536.86 241.652C536.584 241.935 536.138 242.139 535.46 242.139V244.139ZM539.364 240.097V232.818H537.364V240.097H539.364ZM538.364 231.818H537.131V233.818H538.364V231.818ZM545.19 241.966V240.966H544.56L544.288 241.533L545.19 241.966ZM545.249 241.966H546.249V240.966H545.249V241.966ZM545.249 243H544.249V244H545.249V243ZM546.423 243V244H547.423V243H546.423ZM540.536 237.054L539.617 236.66L539.198 237.638L540.2 237.996L540.536 237.054ZM541.65 237.452L541.314 238.393L542.173 238.7L542.557 237.873L541.65 237.452ZM543.281 238.585L543.153 237.593L543.152 237.594L543.281 238.585ZM543.221 239.599L543.102 238.607L543.092 238.608L543.221 239.599ZM545.249 239.162H546.249V236.4L544.481 238.522L545.249 239.162ZM542.923 244.179C544.664 244.179 545.697 243.22 546.091 242.399L544.288 241.533C544.205 241.706 543.846 242.179 542.923 242.179V244.179ZM545.19 242.966H545.249V240.966H545.19V242.966ZM544.249 241.966V243H546.249V241.966H544.249ZM545.249 244H546.423V242H545.249V244ZM547.423 243V237.969H545.423V243H547.423ZM547.423 237.969C547.423 236.456 546.82 235.442 545.914 234.864C545.088 234.336 544.149 234.264 543.599 234.264V236.264C544.023 236.264 544.496 236.331 544.838 236.55C545.101 236.717 545.423 237.055 545.423 237.969H547.423ZM543.599 234.264C542.253 234.264 540.439 234.741 539.617 236.66L541.455 237.448C541.826 236.582 542.638 236.264 543.599 236.264V234.264ZM540.2 237.996L541.314 238.393L541.986 236.51L540.873 236.112L540.2 237.996ZM542.557 237.873C542.618 237.741 542.723 237.602 542.88 237.496C543.03 237.395 543.266 237.298 543.638 237.298V235.298C542.093 235.298 541.149 236.156 540.743 237.031L542.557 237.873ZM543.638 237.298C544.009 237.298 544.122 237.394 544.145 237.417C544.166 237.438 544.249 237.535 544.249 237.849H546.249C546.249 237.185 546.066 236.505 545.552 235.996C545.039 235.488 544.347 235.298 543.638 235.298V237.298ZM544.249 237.849V237.889H546.249V237.849H544.249ZM544.249 237.889C544.249 237.85 544.266 237.673 544.421 237.514C544.538 237.394 544.638 237.389 544.541 237.413C544.454 237.436 544.312 237.458 544.059 237.488C543.829 237.514 543.506 237.548 543.153 237.593L543.408 239.577C543.751 239.533 544.022 239.506 544.292 239.474C544.539 239.445 544.802 239.41 545.033 239.352C545.254 239.296 545.585 239.185 545.854 238.91C546.16 238.595 546.249 238.212 546.249 237.889H544.249ZM543.152 237.594C542.459 237.684 541.53 237.822 540.774 238.252C540.375 238.478 539.997 238.799 539.724 239.254C539.449 239.711 539.317 240.243 539.317 240.832H541.317C541.317 240.547 541.379 240.383 541.439 240.284C541.5 240.182 541.597 240.085 541.761 239.991C542.132 239.781 542.686 239.671 543.409 239.577L543.152 237.594ZM539.317 240.832C539.317 241.858 539.725 242.728 540.427 243.326C541.112 243.909 542.008 244.179 542.923 244.179V242.179C542.386 242.179 541.979 242.021 541.724 241.804C541.487 241.602 541.317 241.298 541.317 240.832H539.317ZM543.102 241.125C542.765 241.125 542.592 241.047 542.531 241.003C542.518 240.994 542.511 240.987 542.508 240.983C542.505 240.98 542.504 240.978 542.503 240.976C542.503 240.976 542.491 240.955 542.491 240.892H540.491C540.491 241.616 540.81 242.228 541.36 242.625C541.871 242.994 542.503 243.125 543.102 243.125V241.125ZM542.491 240.892C542.491 240.827 542.504 240.821 542.494 240.837C542.486 240.85 542.488 240.837 542.538 240.806C542.667 240.726 542.922 240.647 543.35 240.591L543.092 238.608C542.605 238.671 541.995 238.791 541.488 239.104C540.906 239.463 540.491 240.062 540.491 240.892H542.491ZM543.34 240.592C543.573 240.564 544.064 240.511 544.516 240.433C544.741 240.395 544.986 240.345 545.202 240.281C545.309 240.25 545.433 240.207 545.554 240.15C545.654 240.103 545.853 239.999 546.018 239.802L544.481 238.522C544.546 238.444 544.607 238.399 544.637 238.379C544.67 238.356 544.692 238.346 544.697 238.343C544.705 238.34 544.688 238.348 544.635 238.364C544.529 238.395 544.373 238.429 544.178 238.462C543.79 238.529 543.366 238.575 543.102 238.607L543.34 240.592ZM544.249 239.162V240.236H546.249V239.162H544.249ZM544.249 240.236C544.249 240.449 544.165 240.661 544 240.821C543.843 240.975 543.565 241.125 543.102 241.125V243.125C545.02 243.125 546.249 241.769 546.249 240.236H544.249ZM553.436 243H552.436V244H553.436V243ZM554.61 243V244H555.61V243H554.61ZM549.797 236.557V237.557H550.437L550.705 236.976L549.797 236.557ZM549.698 236.557H548.698V237.557H549.698V236.557ZM549.698 235.364H550.698V234.364H549.698V235.364ZM548.564 235.364V234.364H547.564V235.364H548.564ZM548.564 243H547.564V244H548.564V243ZM549.737 243V244H550.737V243H549.737ZM550.737 238.406C550.737 237.95 550.875 237.696 551.006 237.561C551.138 237.426 551.353 237.318 551.686 237.318V235.318C550.896 235.318 550.137 235.588 549.575 236.164C549.013 236.74 548.737 237.53 548.737 238.406H550.737ZM551.686 237.318C552.005 237.318 552.155 237.415 552.234 237.501C552.322 237.596 552.436 237.806 552.436 238.227H554.436C554.436 237.45 554.22 236.706 553.705 236.146C553.181 235.576 552.456 235.318 551.686 235.318V237.318ZM552.436 238.227V243H554.436V238.227H552.436ZM553.436 244H554.61V242H553.436V244ZM555.61 243V238.148H553.61V243H555.61ZM555.61 238.148C555.61 237.002 555.302 236.003 554.622 235.287C553.936 234.564 553 234.264 552.024 234.264V236.264C552.595 236.264 552.952 236.432 553.171 236.664C553.397 236.901 553.61 237.344 553.61 238.148H555.61ZM552.024 234.264C551.296 234.264 550.64 234.429 550.089 234.768C549.535 235.108 549.141 235.591 548.889 236.138L550.705 236.976C550.811 236.747 550.954 236.583 551.136 236.472C551.32 236.358 551.599 236.264 552.024 236.264V234.264ZM549.797 235.557H549.698V237.557H549.797V235.557ZM550.698 236.557V235.364H548.698V236.557H550.698ZM549.698 234.364H548.564V236.364H549.698V234.364ZM547.564 235.364V243H549.564V235.364H547.564ZM548.564 244H549.737V242H548.564V244ZM550.737 243V238.406H548.737V243H550.737Z" fill="#718EBF" mask="url(#path-14-inside-7_105_384)"/>
<path d="M63 225.309V221" stroke="#718EBF"/>
<path d="M141 225.309V221" stroke="#718EBF"/>
<path d="M219 225.309V221" stroke="#718EBF"/>
<path d="M297 225.309V221" stroke="#718EBF"/>
<path d="M376 225.309V221" stroke="#718EBF"/>
<path d="M454 225.309V221" stroke="#718EBF"/>
<path d="M532 225.309V221" stroke="#718EBF"/>
<path d="M56 220H62.3985" stroke="#718EBF"/>
<mask id="path-24-inside-8_105_384" fill="white">
<path d="M43.7157 224.119C45.6419 224.119 46.7498 222.487 46.7498 219.636C46.7498 216.807 45.6248 215.153 43.7157 215.153C41.8066 215.153 40.6816 216.807 40.6816 219.636C40.6816 222.487 41.7896 224.119 43.7157 224.119ZM43.7157 223.182C42.4458 223.182 41.7044 221.908 41.7044 219.636C41.7044 217.369 42.4544 216.074 43.7157 216.074C44.9771 216.074 45.7271 217.369 45.7271 219.636C45.7271 221.908 44.9856 223.182 43.7157 223.182Z"/>
</mask>
<path d="M43.7157 224.119C45.6419 224.119 46.7498 222.487 46.7498 219.636C46.7498 216.807 45.6248 215.153 43.7157 215.153C41.8066 215.153 40.6816 216.807 40.6816 219.636C40.6816 222.487 41.7896 224.119 43.7157 224.119ZM43.7157 223.182C42.4458 223.182 41.7044 221.908 41.7044 219.636C41.7044 217.369 42.4544 216.074 43.7157 216.074C44.9771 216.074 45.7271 217.369 45.7271 219.636C45.7271 221.908 44.9856 223.182 43.7157 223.182Z" fill="#718EBF"/>
<path d="M43.7157 225.119C45.0067 225.119 46.077 224.55 46.783 223.508C47.4554 222.515 47.7498 221.169 47.7498 219.636H45.7498C45.7498 220.954 45.4902 221.85 45.1271 222.386C44.7976 222.873 44.3509 223.119 43.7157 223.119V225.119ZM47.7498 219.636C47.7498 218.11 47.4495 216.766 46.7765 215.773C46.0721 214.734 45.0048 214.153 43.7157 214.153V216.153C44.3357 216.153 44.7854 216.4 45.1209 216.895C45.4876 217.436 45.7498 218.333 45.7498 219.636H47.7498ZM43.7157 214.153C42.4266 214.153 41.3593 214.734 40.655 215.773C39.9819 216.766 39.6816 218.11 39.6816 219.636H41.6816C41.6816 218.333 41.9439 217.436 42.3105 216.895C42.646 216.4 43.0957 216.153 43.7157 216.153V214.153ZM39.6816 219.636C39.6816 221.169 39.976 222.515 40.6484 223.508C41.3544 224.55 42.4248 225.119 43.7157 225.119V223.119C43.0805 223.119 42.6339 222.873 42.3043 222.386C41.9412 221.85 41.6816 220.954 41.6816 219.636H39.6816ZM43.7157 222.182C43.4882 222.182 43.2937 222.1 43.1022 221.765C42.88 221.376 42.7044 220.688 42.7044 219.636H40.7044C40.7044 220.856 40.8995 221.941 41.3655 222.757C41.8622 223.626 42.6734 224.182 43.7157 224.182V222.182ZM42.7044 219.636C42.7044 218.589 42.8813 217.895 43.1064 217.499C43.3034 217.153 43.5008 217.074 43.7157 217.074V215.074C42.6692 215.074 41.861 215.643 41.3677 216.511C40.9024 217.329 40.7044 218.416 40.7044 219.636H42.7044ZM43.7157 217.074C43.9306 217.074 44.128 217.153 44.325 217.499C44.5501 217.895 44.7271 218.589 44.7271 219.636H46.7271C46.7271 218.416 46.5291 217.329 46.0638 216.511C45.5705 215.643 44.7622 215.074 43.7157 215.074V217.074ZM44.7271 219.636C44.7271 220.688 44.5514 221.376 44.3293 221.765C44.1378 222.1 43.9433 222.182 43.7157 222.182V224.182C44.758 224.182 45.5692 223.626 46.0659 222.757C46.532 221.941 46.7271 220.856 46.7271 219.636H44.7271Z" fill="#718EBF" mask="url(#path-24-inside-8_105_384)"/>
<path d="M56.6503 173.765H63" stroke="#718EBF"/>
<mask id="path-27-inside-9_105_384" fill="white">
<path d="M25.8576 179H31.8221V177.984H27.4272V177.911L29.5508 175.639C31.1758 173.899 31.6559 173.086 31.6559 172.038C31.6559 170.58 30.4741 169.416 28.8121 169.416C27.1548 169.416 25.8945 170.543 25.8945 172.205H26.984C26.984 171.129 27.6811 170.413 28.7752 170.413C29.8001 170.413 30.5849 171.041 30.5849 172.038C30.5849 172.911 30.0724 173.557 28.9783 174.753L25.8576 178.169V179ZM36.8125 179.129C38.8991 179.129 40.0994 177.361 40.0994 174.273C40.0994 171.207 38.8807 169.416 36.8125 169.416C34.7443 169.416 33.5256 171.207 33.5256 174.273C33.5256 177.361 34.7259 179.129 36.8125 179.129ZM36.8125 178.114C35.4368 178.114 34.6335 176.733 34.6335 174.273C34.6335 171.817 35.446 170.413 36.8125 170.413C38.179 170.413 38.9915 171.817 38.9915 174.273C38.9915 176.733 38.1882 178.114 36.8125 178.114ZM44.9375 179.129C47.0241 179.129 48.2244 177.361 48.2244 174.273C48.2244 171.207 47.0057 169.416 44.9375 169.416C42.8693 169.416 41.6506 171.207 41.6506 174.273C41.6506 177.361 42.8509 179.129 44.9375 179.129ZM44.9375 178.114C43.5618 178.114 42.7585 176.733 42.7585 174.273C42.7585 171.817 43.571 170.413 44.9375 170.413C46.304 170.413 47.1165 171.817 47.1165 174.273C47.1165 176.733 46.3132 178.114 44.9375 178.114Z"/>
</mask>
<path d="M25.8576 179H31.8221V177.984H27.4272V177.911L29.5508 175.639C31.1758 173.899 31.6559 173.086 31.6559 172.038C31.6559 170.58 30.4741 169.416 28.8121 169.416C27.1548 169.416 25.8945 170.543 25.8945 172.205H26.984C26.984 171.129 27.6811 170.413 28.7752 170.413C29.8001 170.413 30.5849 171.041 30.5849 172.038C30.5849 172.911 30.0724 173.557 28.9783 174.753L25.8576 178.169V179ZM36.8125 179.129C38.8991 179.129 40.0994 177.361 40.0994 174.273C40.0994 171.207 38.8807 169.416 36.8125 169.416C34.7443 169.416 33.5256 171.207 33.5256 174.273C33.5256 177.361 34.7259 179.129 36.8125 179.129ZM36.8125 178.114C35.4368 178.114 34.6335 176.733 34.6335 174.273C34.6335 171.817 35.446 170.413 36.8125 170.413C38.179 170.413 38.9915 171.817 38.9915 174.273C38.9915 176.733 38.1882 178.114 36.8125 178.114ZM44.9375 179.129C47.0241 179.129 48.2244 177.361 48.2244 174.273C48.2244 171.207 47.0057 169.416 44.9375 169.416C42.8693 169.416 41.6506 171.207 41.6506 174.273C41.6506 177.361 42.8509 179.129 44.9375 179.129ZM44.9375 178.114C43.5618 178.114 42.7585 176.733 42.7585 174.273C42.7585 171.817 43.571 170.413 44.9375 170.413C46.304 170.413 47.1165 171.817 47.1165 174.273C47.1165 176.733 46.3132 178.114 44.9375 178.114Z" fill="#718EBF"/>
<path d="M25.8576 179H24.8576V180H25.8576V179ZM31.8221 179V180H32.8221V179H31.8221ZM31.8221 177.984H32.8221V176.984H31.8221V177.984ZM27.4272 177.984H26.4272V178.984H27.4272V177.984ZM27.4272 177.911L26.6967 177.228L26.4272 177.516V177.911H27.4272ZM29.5508 175.639L30.2812 176.322L30.2817 176.322L29.5508 175.639ZM25.8945 172.205H24.8945V173.205H25.8945V172.205ZM26.984 172.205V173.205H27.984V172.205H26.984ZM28.9783 174.753L28.2406 174.078L28.24 174.078L28.9783 174.753ZM25.8576 178.169L25.1193 177.495L24.8576 177.781V178.169H25.8576ZM25.8576 180H31.8221V178H25.8576V180ZM32.8221 179V177.984H30.8221V179H32.8221ZM31.8221 176.984H27.4272V178.984H31.8221V176.984ZM28.4272 177.984V177.911H26.4272V177.984H28.4272ZM28.1577 178.593L30.2812 176.322L28.8203 174.956L26.6967 177.228L28.1577 178.593ZM30.2817 176.322C31.8998 174.589 32.6559 173.517 32.6559 172.038H30.6559C30.6559 172.656 30.4518 173.209 28.8199 174.957L30.2817 176.322ZM32.6559 172.038C32.6559 169.97 30.9675 168.416 28.8121 168.416V170.416C29.9806 170.416 30.6559 171.189 30.6559 172.038H32.6559ZM28.8121 168.416C26.6648 168.416 24.8945 169.93 24.8945 172.205H26.8945C26.8945 171.155 27.6448 170.416 28.8121 170.416V168.416ZM25.8945 173.205H26.984V171.205H25.8945V173.205ZM27.984 172.205C27.984 171.886 28.0831 171.707 28.179 171.61C28.2738 171.515 28.4512 171.413 28.7752 171.413V169.413C28.0051 169.413 27.2869 169.67 26.7596 170.201C26.2335 170.731 25.984 171.447 25.984 172.205H27.984ZM28.7752 171.413C29.0881 171.413 29.2953 171.509 29.4087 171.607C29.5088 171.694 29.5849 171.822 29.5849 172.038H31.5849C31.5849 171.257 31.2686 170.573 30.72 170.097C30.1848 169.632 29.4872 169.413 28.7752 169.413V171.413ZM29.5849 172.038C29.5849 172.456 29.396 172.815 28.2406 174.078L29.7161 175.428C30.7489 174.299 31.5849 173.366 31.5849 172.038H29.5849ZM28.24 174.078L25.1193 177.495L26.5959 178.843L29.7167 175.427L28.24 174.078ZM24.8576 178.169V179H26.8576V178.169H24.8576ZM36.8125 180.129C38.1837 180.129 39.3173 179.526 40.0664 178.42C40.782 177.364 41.0994 175.924 41.0994 174.273H39.0994C39.0994 175.709 38.8167 176.699 38.4105 177.298C38.0378 177.849 37.5279 178.129 36.8125 178.129V180.129ZM41.0994 174.273C41.0994 172.628 40.7757 171.191 40.0593 170.134C39.3117 169.031 38.1812 168.416 36.8125 168.416V170.416C37.512 170.416 38.025 170.697 38.4038 171.256C38.8138 171.861 39.0994 172.852 39.0994 174.273H41.0994ZM36.8125 168.416C35.4438 168.416 34.3133 169.031 33.5657 170.134C32.8493 171.191 32.5256 172.628 32.5256 174.273H34.5256C34.5256 172.852 34.8112 171.861 35.2212 171.256C35.6 170.697 36.113 170.416 36.8125 170.416V168.416ZM32.5256 174.273C32.5256 175.924 32.843 177.364 33.5586 178.42C34.3077 179.526 35.4413 180.129 36.8125 180.129V178.129C36.0971 178.129 35.5872 177.849 35.2145 177.298C34.8083 176.699 34.5256 175.709 34.5256 174.273H32.5256ZM36.8125 177.114C36.532 177.114 36.2956 177.005 36.0755 176.62C35.8246 176.181 35.6335 175.419 35.6335 174.273H33.6335C33.6335 175.587 33.8441 176.746 34.3388 177.612C34.8642 178.532 35.7173 179.114 36.8125 179.114V177.114ZM35.6335 174.273C35.6335 173.131 35.8261 172.363 36.08 171.916C36.3057 171.519 36.5451 171.413 36.8125 171.413V169.413C35.7135 169.413 34.8633 170.009 34.3412 170.928C33.8472 171.797 33.6335 172.958 33.6335 174.273H35.6335ZM36.8125 171.413C37.0799 171.413 37.3193 171.519 37.5451 171.916C37.7989 172.363 37.9915 173.131 37.9915 174.273H39.9915C39.9915 172.958 39.7778 171.797 39.2838 170.928C38.7617 170.009 37.9115 169.413 36.8125 169.413V171.413ZM37.9915 174.273C37.9915 175.419 37.8004 176.181 37.5495 176.62C37.3294 177.005 37.093 177.114 36.8125 177.114V179.114C37.9077 179.114 38.7608 178.532 39.2862 177.612C39.7809 176.746 39.9915 175.587 39.9915 174.273H37.9915ZM44.9375 180.129C46.3087 180.129 47.4423 179.526 48.1914 178.42C48.907 177.364 49.2244 175.924 49.2244 174.273H47.2244C47.2244 175.709 46.9417 176.699 46.5355 177.298C46.1628 177.849 45.6529 178.129 44.9375 178.129V180.129ZM49.2244 174.273C49.2244 172.628 48.9007 171.191 48.1843 170.134C47.4367 169.031 46.3062 168.416 44.9375 168.416V170.416C45.637 170.416 46.15 170.697 46.5288 171.256C46.9388 171.861 47.2244 172.852 47.2244 174.273H49.2244ZM44.9375 168.416C43.5688 168.416 42.4383 169.031 41.6907 170.134C40.9743 171.191 40.6506 172.628 40.6506 174.273H42.6506C42.6506 172.852 42.9362 171.861 43.3462 171.256C43.725 170.697 44.238 170.416 44.9375 170.416V168.416ZM40.6506 174.273C40.6506 175.924 40.968 177.364 41.6836 178.42C42.4327 179.526 43.5663 180.129 44.9375 180.129V178.129C44.2221 178.129 43.7122 177.849 43.3395 177.298C42.9333 176.699 42.6506 175.709 42.6506 174.273H40.6506ZM44.9375 177.114C44.657 177.114 44.4206 177.005 44.2005 176.62C43.9496 176.181 43.7585 175.419 43.7585 174.273H41.7585C41.7585 175.587 41.9691 176.746 42.4638 177.612C42.9892 178.532 43.8423 179.114 44.9375 179.114V177.114ZM43.7585 174.273C43.7585 173.131 43.9511 172.363 44.205 171.916C44.4307 171.519 44.6701 171.413 44.9375 171.413V169.413C43.8385 169.413 42.9883 170.009 42.4662 170.928C41.9722 171.797 41.7585 172.958 41.7585 174.273H43.7585ZM44.9375 171.413C45.2049 171.413 45.4443 171.519 45.6701 171.916C45.9239 172.363 46.1165 173.131 46.1165 174.273H48.1165C48.1165 172.958 47.9028 171.797 47.4088 170.928C46.8867 170.009 46.0365 169.413 44.9375 169.413V171.413ZM46.1165 174.273C46.1165 175.419 45.9254 176.181 45.6745 176.62C45.4544 177.005 45.218 177.114 44.9375 177.114V179.114C46.0327 179.114 46.8858 178.532 47.4112 177.612C47.9059 176.746 48.1165 175.587 48.1165 174.273H46.1165Z" fill="#718EBF" mask="url(#path-27-inside-9_105_384)"/>
<path d="M56.6503 128.16H63" stroke="#718EBF"/>
<mask id="path-30-inside-10_105_384" fill="white">
<path d="M24.743 131.061H29.1932V133H30.2827V131.061H31.5754V130.045H30.2827V123.545H28.8978L24.743 130.119V131.061ZM29.1932 130.045H25.9802V129.972L29.1194 125.004H29.1932V130.045ZM36.3892 133.129C38.4758 133.129 39.6761 131.361 39.6761 128.273C39.6761 125.207 38.4574 123.416 36.3892 123.416C34.321 123.416 33.1023 125.207 33.1023 128.273C33.1023 131.361 34.3025 133.129 36.3892 133.129ZM36.3892 132.114C35.0135 132.114 34.2102 130.733 34.2102 128.273C34.2102 125.817 35.0227 124.413 36.3892 124.413C37.7557 124.413 38.5682 125.817 38.5682 128.273C38.5682 130.733 37.7649 132.114 36.3892 132.114ZM44.5142 133.129C46.6008 133.129 47.8011 131.361 47.8011 128.273C47.8011 125.207 46.5824 123.416 44.5142 123.416C42.446 123.416 41.2273 125.207 41.2273 128.273C41.2273 131.361 42.4275 133.129 44.5142 133.129ZM44.5142 132.114C43.1385 132.114 42.3352 130.733 42.3352 128.273C42.3352 125.817 43.1477 124.413 44.5142 124.413C45.8807 124.413 46.6932 125.817 46.6932 128.273C46.6932 130.733 45.8899 132.114 44.5142 132.114Z"/>
</mask>
<path d="M24.743 131.061H29.1932V133H30.2827V131.061H31.5754V130.045H30.2827V123.545H28.8978L24.743 130.119V131.061ZM29.1932 130.045H25.9802V129.972L29.1194 125.004H29.1932V130.045ZM36.3892 133.129C38.4758 133.129 39.6761 131.361 39.6761 128.273C39.6761 125.207 38.4574 123.416 36.3892 123.416C34.321 123.416 33.1023 125.207 33.1023 128.273C33.1023 131.361 34.3025 133.129 36.3892 133.129ZM36.3892 132.114C35.0135 132.114 34.2102 130.733 34.2102 128.273C34.2102 125.817 35.0227 124.413 36.3892 124.413C37.7557 124.413 38.5682 125.817 38.5682 128.273C38.5682 130.733 37.7649 132.114 36.3892 132.114ZM44.5142 133.129C46.6008 133.129 47.8011 131.361 47.8011 128.273C47.8011 125.207 46.5824 123.416 44.5142 123.416C42.446 123.416 41.2273 125.207 41.2273 128.273C41.2273 131.361 42.4275 133.129 44.5142 133.129ZM44.5142 132.114C43.1385 132.114 42.3352 130.733 42.3352 128.273C42.3352 125.817 43.1477 124.413 44.5142 124.413C45.8807 124.413 46.6932 125.817 46.6932 128.273C46.6932 130.733 45.8899 132.114 44.5142 132.114Z" fill="#718EBF"/>
<path d="M24.743 131.061H23.743V132.061H24.743V131.061ZM29.1932 131.061H30.1932V130.061H29.1932V131.061ZM29.1932 133H28.1932V134H29.1932V133ZM30.2827 133V134H31.2827V133H30.2827ZM30.2827 131.061V130.061H29.2827V131.061H30.2827ZM31.5754 131.061V132.061H32.5754V131.061H31.5754ZM31.5754 130.045H32.5754V129.045H31.5754V130.045ZM30.2827 130.045H29.2827V131.045H30.2827V130.045ZM30.2827 123.545H31.2827V122.545H30.2827V123.545ZM28.8978 123.545V122.545H28.3468L28.0525 123.011L28.8978 123.545ZM24.743 130.119L23.8976 129.585L23.743 129.83V130.119H24.743ZM29.1932 130.045V131.045H30.1932V130.045H29.1932ZM25.9802 130.045H24.9802V131.045H25.9802V130.045ZM25.9802 129.972L25.1348 129.437L24.9802 129.682V129.972H25.9802ZM29.1194 125.004V124.004H28.5684L28.274 124.47L29.1194 125.004ZM29.1932 125.004H30.1932V124.004H29.1932V125.004ZM24.743 132.061H29.1932V130.061H24.743V132.061ZM28.1932 131.061V133H30.1932V131.061H28.1932ZM29.1932 134H30.2827V132H29.1932V134ZM31.2827 133V131.061H29.2827V133H31.2827ZM30.2827 132.061H31.5754V130.061H30.2827V132.061ZM32.5754 131.061V130.045H30.5754V131.061H32.5754ZM31.5754 129.045H30.2827V131.045H31.5754V129.045ZM31.2827 130.045V123.545H29.2827V130.045H31.2827ZM30.2827 122.545H28.8978V124.545H30.2827V122.545ZM28.0525 123.011L23.8976 129.585L25.5883 130.654L29.7431 124.08L28.0525 123.011ZM23.743 130.119V131.061H25.743V130.119H23.743ZM29.1932 129.045H25.9802V131.045H29.1932V129.045ZM26.9802 130.045V129.972H24.9802V130.045H26.9802ZM26.8255 130.506L29.9647 125.538L28.274 124.47L25.1348 129.437L26.8255 130.506ZM29.1194 126.004H29.1932V124.004H29.1194V126.004ZM28.1932 125.004V130.045H30.1932V125.004H28.1932ZM36.3892 134.129C37.7604 134.129 38.894 133.526 39.6431 132.42C40.3587 131.364 40.6761 129.924 40.6761 128.273H38.6761C38.6761 129.709 38.3934 130.699 37.9872 131.298C37.6145 131.849 37.1046 132.129 36.3892 132.129V134.129ZM40.6761 128.273C40.6761 126.628 40.3524 125.191 39.636 124.134C38.8884 123.031 37.7578 122.416 36.3892 122.416V124.416C37.0887 124.416 37.6016 124.697 37.9804 125.256C38.3904 125.861 38.6761 126.852 38.6761 128.273H40.6761ZM36.3892 122.416C35.0205 122.416 33.89 123.031 33.1424 124.134C32.426 125.191 32.1023 126.628 32.1023 128.273H34.1023C34.1023 126.852 34.3879 125.861 34.7979 125.256C35.1767 124.697 35.6897 124.416 36.3892 124.416V122.416ZM32.1023 128.273C32.1023 129.924 32.4197 131.364 33.1353 132.42C33.8844 133.526 35.018 134.129 36.3892 134.129V132.129C35.6737 132.129 35.1639 131.849 34.7912 131.298C34.3849 130.699 34.1023 129.709 34.1023 128.273H32.1023ZM36.3892 131.114C36.1087 131.114 35.8723 131.005 35.6521 130.62C35.4013 130.181 35.2102 129.419 35.2102 128.273H33.2102C33.2102 129.587 33.4208 130.746 33.9155 131.612C34.4409 132.532 35.2939 133.114 36.3892 133.114V131.114ZM35.2102 128.273C35.2102 127.131 35.4028 126.363 35.6566 125.916C35.8824 125.519 36.1217 125.413 36.3892 125.413V123.413C35.2901 123.413 34.44 124.009 33.9179 124.928C33.4238 125.797 33.2102 126.958 33.2102 128.273H35.2102ZM36.3892 125.413C36.6566 125.413 36.8959 125.519 37.1217 125.916C37.3755 126.363 37.5682 127.131 37.5682 128.273H39.5682C39.5682 126.958 39.3545 125.797 38.8605 124.928C38.3384 124.009 37.4882 123.413 36.3892 123.413V125.413ZM37.5682 128.273C37.5682 129.419 37.3771 130.181 37.1262 130.62C36.906 131.005 36.6697 131.114 36.3892 131.114V133.114C37.4844 133.114 38.3375 132.532 38.8629 131.612C39.3576 130.746 39.5682 129.587 39.5682 128.273H37.5682ZM44.5142 134.129C45.8854 134.129 47.019 133.526 47.7681 132.42C48.4837 131.364 48.8011 129.924 48.8011 128.273H46.8011C46.8011 129.709 46.5184 130.699 46.1122 131.298C45.7395 131.849 45.2296 132.129 44.5142 132.129V134.129ZM48.8011 128.273C48.8011 126.628 48.4774 125.191 47.761 124.134C47.0134 123.031 45.8828 122.416 44.5142 122.416V124.416C45.2137 124.416 45.7266 124.697 46.1054 125.256C46.5154 125.861 46.8011 126.852 46.8011 128.273H48.8011ZM44.5142 122.416C43.1455 122.416 42.015 123.031 41.2674 124.134C40.551 125.191 40.2273 126.628 40.2273 128.273H42.2273C42.2273 126.852 42.5129 125.861 42.9229 125.256C43.3017 124.697 43.8147 124.416 44.5142 124.416V122.416ZM40.2273 128.273C40.2273 129.924 40.5447 131.364 41.2603 132.42C42.0094 133.526 43.143 134.129 44.5142 134.129V132.129C43.7987 132.129 43.2889 131.849 42.9162 131.298C42.5099 130.699 42.2273 129.709 42.2273 128.273H40.2273ZM44.5142 131.114C44.2337 131.114 43.9973 131.005 43.7771 130.62C43.5263 130.181 43.3352 129.419 43.3352 128.273H41.3352C41.3352 129.587 41.5457 130.746 42.0405 131.612C42.5658 132.532 43.4189 133.114 44.5142 133.114V131.114ZM43.3352 128.273C43.3352 127.131 43.5278 126.363 43.7816 125.916C44.0074 125.519 44.2467 125.413 44.5142 125.413V123.413C43.4151 123.413 42.565 124.009 42.0429 124.928C41.5488 125.797 41.3352 126.958 41.3352 128.273H43.3352ZM44.5142 125.413C44.7816 125.413 45.0209 125.519 45.2467 125.916C45.5005 126.363 45.6932 127.131 45.6932 128.273H47.6932C47.6932 126.958 47.4795 125.797 46.9855 124.928C46.4634 124.009 45.6132 123.413 44.5142 123.413V125.413ZM45.6932 128.273C45.6932 129.419 45.5021 130.181 45.2512 130.62C45.031 131.005 44.7947 131.114 44.5142 131.114V133.114C45.6094 133.114 46.4625 132.532 46.9879 131.612C47.4826 130.746 47.6932 129.587 47.6932 128.273H45.6932Z" fill="#718EBF" mask="url(#path-30-inside-10_105_384)"/>
<path d="M56.6503 81.1599H63" stroke="#718EBF"/>
<mask id="path-33-inside-11_105_384" fill="white">
<path d="M28.3323 86.1293C30.2435 86.1523 31.4899 84.712 31.4899 82.9531C31.4899 81.125 30.1373 79.8139 28.5169 79.8139C27.5429 79.8139 26.7073 80.2894 26.1902 81.0696H26.1164C26.121 78.766 27.0166 77.4318 28.48 77.4318C29.4772 77.4318 30.0773 78.0597 30.2897 78.9091H31.4161C31.1853 77.4411 30.0681 76.4162 28.48 76.4162C26.3518 76.4162 25.0453 78.2997 25.0453 81.642C25.0453 85.1367 26.7811 86.1108 28.3323 86.1293ZM28.3323 85.1136C27.1458 85.1136 26.2779 84.1026 26.2826 82.9716C26.2872 81.8406 27.1966 80.8295 28.3692 80.8295C29.5279 80.8295 30.382 81.7805 30.382 82.9531C30.382 84.1534 29.491 85.1136 28.3323 85.1136ZM36.3892 86.1293C38.4758 86.1293 39.6761 84.3612 39.6761 81.2727C39.6761 78.2074 38.4574 76.4162 36.3892 76.4162C34.321 76.4162 33.1023 78.2074 33.1023 81.2727C33.1023 84.3612 34.3025 86.1293 36.3892 86.1293ZM36.3892 85.1136C35.0135 85.1136 34.2102 83.7333 34.2102 81.2727C34.2102 78.8168 35.0227 77.4134 36.3892 77.4134C37.7557 77.4134 38.5682 78.8168 38.5682 81.2727C38.5682 83.7333 37.7649 85.1136 36.3892 85.1136ZM44.5142 86.1293C46.6008 86.1293 47.8011 84.3612 47.8011 81.2727C47.8011 78.2074 46.5824 76.4162 44.5142 76.4162C42.446 76.4162 41.2273 78.2074 41.2273 81.2727C41.2273 84.3612 42.4275 86.1293 44.5142 86.1293ZM44.5142 85.1136C43.1385 85.1136 42.3352 83.7333 42.3352 81.2727C42.3352 78.8168 43.1477 77.4134 44.5142 77.4134C45.8807 77.4134 46.6932 78.8168 46.6932 81.2727C46.6932 83.7333 45.8899 85.1136 44.5142 85.1136Z"/>
</mask>
<path d="M28.3323 86.1293C30.2435 86.1523 31.4899 84.712 31.4899 82.9531C31.4899 81.125 30.1373 79.8139 28.5169 79.8139C27.5429 79.8139 26.7073 80.2894 26.1902 81.0696H26.1164C26.121 78.766 27.0166 77.4318 28.48 77.4318C29.4772 77.4318 30.0773 78.0597 30.2897 78.9091H31.4161C31.1853 77.4411 30.0681 76.4162 28.48 76.4162C26.3518 76.4162 25.0453 78.2997 25.0453 81.642C25.0453 85.1367 26.7811 86.1108 28.3323 86.1293ZM28.3323 85.1136C27.1458 85.1136 26.2779 84.1026 26.2826 82.9716C26.2872 81.8406 27.1966 80.8295 28.3692 80.8295C29.5279 80.8295 30.382 81.7805 30.382 82.9531C30.382 84.1534 29.491 85.1136 28.3323 85.1136ZM36.3892 86.1293C38.4758 86.1293 39.6761 84.3612 39.6761 81.2727C39.6761 78.2074 38.4574 76.4162 36.3892 76.4162C34.321 76.4162 33.1023 78.2074 33.1023 81.2727C33.1023 84.3612 34.3025 86.1293 36.3892 86.1293ZM36.3892 85.1136C35.0135 85.1136 34.2102 83.7333 34.2102 81.2727C34.2102 78.8168 35.0227 77.4134 36.3892 77.4134C37.7557 77.4134 38.5682 78.8168 38.5682 81.2727C38.5682 83.7333 37.7649 85.1136 36.3892 85.1136ZM44.5142 86.1293C46.6008 86.1293 47.8011 84.3612 47.8011 81.2727C47.8011 78.2074 46.5824 76.4162 44.5142 76.4162C42.446 76.4162 41.2273 78.2074 41.2273 81.2727C41.2273 84.3612 42.4275 86.1293 44.5142 86.1293ZM44.5142 85.1136C43.1385 85.1136 42.3352 83.7333 42.3352 81.2727C42.3352 78.8168 43.1477 77.4134 44.5142 77.4134C45.8807 77.4134 46.6932 78.8168 46.6932 81.2727C46.6932 83.7333 45.8899 85.1136 44.5142 85.1136Z" fill="#718EBF"/>
<path d="M28.3323 86.1293L28.3444 85.1293L28.3442 85.1293L28.3323 86.1293ZM26.1902 81.0696V82.0696H26.7272L27.0238 81.622L26.1902 81.0696ZM26.1164 81.0696L25.1164 81.0676L25.1144 82.0696H26.1164V81.0696ZM30.2897 78.9091L29.3195 79.1516L29.5089 79.9091H30.2897V78.9091ZM31.4161 78.9091V79.9091H32.5856L32.4039 78.7538L31.4161 78.9091ZM26.2826 82.9716L25.2826 82.9675L26.2826 82.9716ZM28.3202 87.1292C30.8437 87.1597 32.4899 85.2121 32.4899 82.9531H30.4899C30.4899 84.2119 29.6433 85.145 28.3444 85.1293L28.3202 87.1292ZM32.4899 82.9531C32.4899 80.5997 30.7162 78.8139 28.5169 78.8139V80.8139C29.5584 80.8139 30.4899 81.6503 30.4899 82.9531H32.4899ZM28.5169 78.8139C27.1953 78.8139 26.0521 79.4678 25.3567 80.5172L27.0238 81.622C27.3624 81.111 27.8904 80.8139 28.5169 80.8139V78.8139ZM26.1902 80.0696H26.1164V82.0696H26.1902V80.0696ZM27.1164 81.0716C27.1185 80.0284 27.3253 79.3351 27.5875 78.9351C27.8201 78.5802 28.1033 78.4318 28.48 78.4318V76.4318C27.3932 76.4318 26.497 76.9505 25.9148 77.8386C25.3622 78.6816 25.1189 79.8072 25.1164 81.0676L27.1164 81.0716ZM28.48 78.4318C28.7548 78.4318 28.9155 78.5126 29.0212 78.605C29.1382 78.7072 29.252 78.8816 29.3195 79.1516L31.2598 78.6666C31.115 78.0871 30.8226 77.523 30.337 77.0988C29.8403 76.6649 29.2023 76.4318 28.48 76.4318V78.4318ZM30.2897 79.9091H31.4161V77.9091H30.2897V79.9091ZM32.4039 78.7538C32.0987 76.8122 30.5733 75.4162 28.48 75.4162V77.4162C29.5629 77.4162 30.2718 78.0699 30.4282 79.0644L32.4039 78.7538ZM28.48 75.4162C27.073 75.4162 25.9059 76.0614 25.1326 77.2209C24.3901 78.3344 24.0453 79.8614 24.0453 81.642H26.0453C26.0453 80.0803 26.3538 78.9945 26.7966 78.3306C27.2086 77.7128 27.7588 77.4162 28.48 77.4162V75.4162ZM24.0453 81.642C24.0453 83.5453 24.5187 84.9393 25.3711 85.8662C26.2298 86.7999 27.3424 87.1175 28.3204 87.1292L28.3442 85.1293C27.7711 85.1225 27.2401 84.9439 26.8432 84.5123C26.4399 84.0738 26.0453 83.2335 26.0453 81.642H24.0453ZM28.3323 84.1136C27.7678 84.1136 27.2799 83.6235 27.2826 82.9757L25.2826 82.9675C25.276 84.5818 26.5239 86.1136 28.3323 86.1136V84.1136ZM27.2826 82.9757C27.2851 82.3427 27.7985 81.8295 28.3692 81.8295V79.8295C26.5948 79.8295 25.2892 81.3384 25.2826 82.9675L27.2826 82.9757ZM28.3692 81.8295C28.9109 81.8295 29.382 82.2658 29.382 82.9531H31.382C31.382 81.2953 30.145 79.8295 28.3692 79.8295V81.8295ZM29.382 82.9531C29.382 83.6579 28.8836 84.1136 28.3323 84.1136V86.1136C30.0984 86.1136 31.382 84.6489 31.382 82.9531H29.382ZM36.3892 87.1293C37.7604 87.1293 38.894 86.5259 39.6431 85.42C40.3587 84.3635 40.6761 82.9244 40.6761 81.2727H38.6761C38.6761 82.7095 38.3934 83.6986 37.9872 84.2983C37.6145 84.8486 37.1046 85.1293 36.3892 85.1293V87.1293ZM40.6761 81.2727C40.6761 79.6283 40.3524 78.1909 39.636 77.1339C38.8884 76.0308 37.7578 75.4162 36.3892 75.4162V77.4162C37.0887 77.4162 37.6016 77.6971 37.9804 78.256C38.3904 78.8609 38.6761 79.8519 38.6761 81.2727H40.6761ZM36.3892 75.4162C35.0205 75.4162 33.89 76.0308 33.1424 77.1339C32.426 78.1909 32.1023 79.6283 32.1023 81.2727H34.1023C34.1023 79.8519 34.3879 78.8609 34.7979 78.256C35.1767 77.6971 35.6897 77.4162 36.3892 77.4162V75.4162ZM32.1023 81.2727C32.1023 82.9244 32.4197 84.3635 33.1353 85.42C33.8844 86.5259 35.018 87.1293 36.3892 87.1293V85.1293C35.6737 85.1293 35.1639 84.8486 34.7912 84.2983C34.3849 83.6986 34.1023 82.7095 34.1023 81.2727H32.1023ZM36.3892 84.1136C36.1087 84.1136 35.8723 84.0054 35.6521 83.6199C35.4013 83.1808 35.2102 82.4188 35.2102 81.2727H33.2102C33.2102 82.5872 33.4208 83.7457 33.9155 84.6119C34.4409 85.5317 35.2939 86.1136 36.3892 86.1136V84.1136ZM35.2102 81.2727C35.2102 80.1314 35.4028 79.3627 35.6566 78.9162C35.8824 78.519 36.1217 78.4134 36.3892 78.4134V76.4134C35.2901 76.4134 34.44 77.0094 33.9179 77.9279C33.4238 78.7971 33.2102 79.9581 33.2102 81.2727H35.2102ZM36.3892 78.4134C36.6566 78.4134 36.8959 78.519 37.1217 78.9162C37.3755 79.3627 37.5682 80.1314 37.5682 81.2727H39.5682C39.5682 79.9581 39.3545 78.7971 38.8605 77.9279C38.3384 77.0094 37.4882 76.4134 36.3892 76.4134V78.4134ZM37.5682 81.2727C37.5682 82.4188 37.3771 83.1808 37.1262 83.6199C36.906 84.0054 36.6697 84.1136 36.3892 84.1136V86.1136C37.4844 86.1136 38.3375 85.5317 38.8629 84.6119C39.3576 83.7457 39.5682 82.5872 39.5682 81.2727H37.5682ZM44.5142 87.1293C45.8854 87.1293 47.019 86.5259 47.7681 85.42C48.4837 84.3635 48.8011 82.9244 48.8011 81.2727H46.8011C46.8011 82.7095 46.5184 83.6986 46.1122 84.2983C45.7395 84.8486 45.2296 85.1293 44.5142 85.1293V87.1293ZM48.8011 81.2727C48.8011 79.6283 48.4774 78.1909 47.761 77.1339C47.0134 76.0308 45.8828 75.4162 44.5142 75.4162V77.4162C45.2137 77.4162 45.7266 77.6971 46.1054 78.256C46.5154 78.8609 46.8011 79.8519 46.8011 81.2727H48.8011ZM44.5142 75.4162C43.1455 75.4162 42.015 76.0308 41.2674 77.1339C40.551 78.1909 40.2273 79.6283 40.2273 81.2727H42.2273C42.2273 79.8519 42.5129 78.8609 42.9229 78.256C43.3017 77.6971 43.8147 77.4162 44.5142 77.4162V75.4162ZM40.2273 81.2727C40.2273 82.9244 40.5447 84.3635 41.2603 85.42C42.0094 86.5259 43.143 87.1293 44.5142 87.1293V85.1293C43.7987 85.1293 43.2889 84.8486 42.9162 84.2983C42.5099 83.6986 42.2273 82.7095 42.2273 81.2727H40.2273ZM44.5142 84.1136C44.2337 84.1136 43.9973 84.0054 43.7771 83.6199C43.5263 83.1808 43.3352 82.4188 43.3352 81.2727H41.3352C41.3352 82.5872 41.5457 83.7457 42.0405 84.6119C42.5658 85.5317 43.4189 86.1136 44.5142 86.1136V84.1136ZM43.3352 81.2727C43.3352 80.1314 43.5278 79.3627 43.7816 78.9162C44.0074 78.519 44.2467 78.4134 44.5142 78.4134V76.4134C43.4151 76.4134 42.565 77.0094 42.0429 77.9279C41.5488 78.7971 41.3352 79.9581 41.3352 81.2727H43.3352ZM44.5142 78.4134C44.7816 78.4134 45.0209 78.519 45.2467 78.9162C45.5005 79.3627 45.6932 80.1314 45.6932 81.2727H47.6932C47.6932 79.9581 47.4795 78.7971 46.9855 77.9279C46.4634 77.0094 45.6132 76.4134 44.5142 76.4134V78.4134ZM45.6932 81.2727C45.6932 82.4188 45.5021 83.1808 45.2512 83.6199C45.031 84.0054 44.7947 84.1136 44.5142 84.1136V86.1136C45.6094 86.1136 46.4625 85.5317 46.9879 84.6119C47.4826 83.7457 47.6932 82.5872 47.6932 81.2727H45.6932Z" fill="#718EBF" mask="url(#path-33-inside-11_105_384)"/>
<path d="M56.6503 35.1599H63" stroke="#718EBF"/>
<mask id="path-36-inside-12_105_384" fill="white">
<path d="M28.323 40.1293C30.2112 40.1293 31.5269 39.0259 31.5361 37.4886C31.5269 36.293 30.7282 35.2773 29.708 35.0881V35.0327C30.5944 34.8018 31.176 33.9339 31.1853 32.9276C31.176 31.4872 29.9665 30.4162 28.323 30.4162C26.6611 30.4162 25.4516 31.4872 25.4608 32.9276C25.4516 33.9339 26.0333 34.8018 26.9381 35.0327V35.0881C25.8994 35.2773 25.1007 36.293 25.11 37.4886C25.1007 39.0259 26.4164 40.1293 28.323 40.1293ZM28.323 39.1136C27.0258 39.1136 26.2272 38.4489 26.2364 37.4332C26.2272 36.3668 27.1089 35.6051 28.323 35.6051C29.5187 35.6051 30.4005 36.3668 30.4097 37.4332C30.4005 38.4489 29.6018 39.1136 28.323 39.1136ZM28.323 34.6264C27.289 34.6264 26.5595 33.9801 26.5688 33.0014C26.5595 32.0412 27.2613 31.4134 28.323 31.4134C29.3664 31.4134 30.0681 32.0412 30.0773 33.0014C30.0681 33.9801 29.3387 34.6264 28.323 34.6264ZM36.3892 40.1293C38.4758 40.1293 39.6761 38.3612 39.6761 35.2727C39.6761 32.2074 38.4574 30.4162 36.3892 30.4162C34.321 30.4162 33.1023 32.2074 33.1023 35.2727C33.1023 38.3612 34.3025 40.1293 36.3892 40.1293ZM36.3892 39.1136C35.0135 39.1136 34.2102 37.7333 34.2102 35.2727C34.2102 32.8168 35.0227 31.4134 36.3892 31.4134C37.7557 31.4134 38.5682 32.8168 38.5682 35.2727C38.5682 37.7333 37.7649 39.1136 36.3892 39.1136ZM44.5142 40.1293C46.6008 40.1293 47.8011 38.3612 47.8011 35.2727C47.8011 32.2074 46.5824 30.4162 44.5142 30.4162C42.446 30.4162 41.2273 32.2074 41.2273 35.2727C41.2273 38.3612 42.4275 40.1293 44.5142 40.1293ZM44.5142 39.1136C43.1385 39.1136 42.3352 37.7333 42.3352 35.2727C42.3352 32.8168 43.1477 31.4134 44.5142 31.4134C45.8807 31.4134 46.6932 32.8168 46.6932 35.2727C46.6932 37.7333 45.8899 39.1136 44.5142 39.1136Z"/>
</mask>
<path d="M28.323 40.1293C30.2112 40.1293 31.5269 39.0259 31.5361 37.4886C31.5269 36.293 30.7282 35.2773 29.708 35.0881V35.0327C30.5944 34.8018 31.176 33.9339 31.1853 32.9276C31.176 31.4872 29.9665 30.4162 28.323 30.4162C26.6611 30.4162 25.4516 31.4872 25.4608 32.9276C25.4516 33.9339 26.0333 34.8018 26.9381 35.0327V35.0881C25.8994 35.2773 25.1007 36.293 25.11 37.4886C25.1007 39.0259 26.4164 40.1293 28.323 40.1293ZM28.323 39.1136C27.0258 39.1136 26.2272 38.4489 26.2364 37.4332C26.2272 36.3668 27.1089 35.6051 28.323 35.6051C29.5187 35.6051 30.4005 36.3668 30.4097 37.4332C30.4005 38.4489 29.6018 39.1136 28.323 39.1136ZM28.323 34.6264C27.289 34.6264 26.5595 33.9801 26.5688 33.0014C26.5595 32.0412 27.2613 31.4134 28.323 31.4134C29.3664 31.4134 30.0681 32.0412 30.0773 33.0014C30.0681 33.9801 29.3387 34.6264 28.323 34.6264ZM36.3892 40.1293C38.4758 40.1293 39.6761 38.3612 39.6761 35.2727C39.6761 32.2074 38.4574 30.4162 36.3892 30.4162C34.321 30.4162 33.1023 32.2074 33.1023 35.2727C33.1023 38.3612 34.3025 40.1293 36.3892 40.1293ZM36.3892 39.1136C35.0135 39.1136 34.2102 37.7333 34.2102 35.2727C34.2102 32.8168 35.0227 31.4134 36.3892 31.4134C37.7557 31.4134 38.5682 32.8168 38.5682 35.2727C38.5682 37.7333 37.7649 39.1136 36.3892 39.1136ZM44.5142 40.1293C46.6008 40.1293 47.8011 38.3612 47.8011 35.2727C47.8011 32.2074 46.5824 30.4162 44.5142 30.4162C42.446 30.4162 41.2273 32.2074 41.2273 35.2727C41.2273 38.3612 42.4275 40.1293 44.5142 40.1293ZM44.5142 39.1136C43.1385 39.1136 42.3352 37.7333 42.3352 35.2727C42.3352 32.8168 43.1477 31.4134 44.5142 31.4134C45.8807 31.4134 46.6932 32.8168 46.6932 35.2727C46.6932 37.7333 45.8899 39.1136 44.5142 39.1136Z" fill="#718EBF"/>
<path d="M31.5361 37.4886L32.5362 37.4946L32.5361 37.4809L31.5361 37.4886ZM29.708 35.0881H28.708V35.9196L29.5256 36.0713L29.708 35.0881ZM29.708 35.0327L29.456 34.0649L28.708 34.2597V35.0327H29.708ZM31.1853 32.9276L32.1852 32.9367L32.1853 32.9289L32.1852 32.9211L31.1853 32.9276ZM25.4608 32.9276L26.4608 32.9367L26.4609 32.9289L26.4608 32.9211L25.4608 32.9276ZM26.9381 35.0327H27.9381V34.2557L27.1853 34.0637L26.9381 35.0327ZM26.9381 35.0881L27.1174 36.0719L27.9381 35.9223V35.0881H26.9381ZM25.11 37.4886L26.1101 37.4946L26.1099 37.4809L25.11 37.4886ZM26.2364 37.4332L27.2364 37.4423L27.2364 37.4335L27.2364 37.4246L26.2364 37.4332ZM30.4097 37.4332L31.4096 37.4423L31.4097 37.4335L31.4097 37.4246L30.4097 37.4332ZM26.5688 33.0014L27.5687 33.0109L27.5688 33.0013L27.5687 32.9918L26.5688 33.0014ZM30.0773 33.0014L31.0773 33.0109L31.0774 33.0013L31.0773 32.9918L30.0773 33.0014ZM28.323 41.1293C30.5813 41.1293 32.5226 39.7459 32.5361 37.4946L30.5361 37.4826C30.5312 38.306 29.8411 39.1293 28.323 39.1293V41.1293ZM32.5361 37.4809C32.5237 35.8807 31.4512 34.3944 29.8904 34.1048L29.5256 36.0713C30.0052 36.1603 30.53 36.7052 30.5361 37.4964L32.5361 37.4809ZM30.708 35.0881V35.0327H28.708V35.0881H30.708ZM29.96 36.0004C31.3726 35.6325 32.1727 34.2959 32.1852 32.9367L30.1853 32.9184C30.1793 33.572 29.8161 33.9712 29.456 34.0649L29.96 36.0004ZM32.1852 32.9211C32.1718 30.8206 30.3989 29.4162 28.323 29.4162V31.4162C29.5341 31.4162 30.1803 32.1538 30.1853 32.934L32.1852 32.9211ZM28.323 29.4162C26.2373 29.4162 24.4473 30.8163 24.4608 32.934L26.4608 32.9211C26.4559 32.1581 27.0849 31.4162 28.323 31.4162V29.4162ZM24.4609 32.9184C24.4482 34.2975 25.2601 35.6366 26.6909 36.0016L27.1853 34.0637C26.8064 33.9671 26.455 33.5704 26.4608 32.9367L24.4609 32.9184ZM25.9381 35.0327V35.0881H27.9381V35.0327H25.9381ZM26.7588 34.1043C25.1817 34.3917 24.0975 35.8785 24.11 37.4964L26.1099 37.4809C26.104 36.7074 26.6171 36.163 27.1174 36.0719L26.7588 34.1043ZM24.11 37.4826C24.1035 38.5611 24.5709 39.503 25.3609 40.1562C26.1382 40.7987 27.1822 41.1293 28.323 41.1293V39.1293C27.5572 39.1293 26.9901 38.9081 26.6352 38.6147C26.2931 38.3319 26.1072 37.9535 26.11 37.4946L24.11 37.4826ZM28.323 38.1136C27.8348 38.1136 27.5556 37.9881 27.4205 37.8783C27.308 37.7868 27.2344 37.6617 27.2364 37.4423L25.2364 37.4241C25.2292 38.2204 25.5503 38.9355 26.1591 39.4303C26.7453 39.9068 27.5141 40.1136 28.323 40.1136V38.1136ZM27.2364 37.4246C27.2331 37.0458 27.5228 36.6051 28.323 36.6051V34.6051C26.695 34.6051 25.2212 35.6879 25.2364 37.4419L27.2364 37.4246ZM28.323 36.6051C29.0931 36.6051 29.4062 37.04 29.4097 37.4419L31.4097 37.4246C31.3947 35.6937 29.9443 34.6051 28.323 34.6051V36.6051ZM29.4097 37.4241C29.4077 37.6496 29.3295 37.7826 29.2117 37.8783C29.0742 37.9901 28.7981 38.1136 28.323 38.1136V40.1136C29.1268 40.1136 29.8894 39.9048 30.4732 39.4303C31.0767 38.9397 31.4025 38.2325 31.4096 37.4423L29.4097 37.4241ZM28.323 33.6264C28.0126 33.6264 27.8261 33.5313 27.7295 33.443C27.6422 33.3631 27.5666 33.235 27.5687 33.0109L25.5688 32.992C25.5617 33.7465 25.8463 34.431 26.3798 34.9189C26.9042 35.3984 27.5994 35.6264 28.323 35.6264V33.6264ZM27.5687 32.9918C27.5666 32.772 27.6384 32.6581 27.7142 32.5898C27.801 32.5114 27.9857 32.4134 28.323 32.4134V30.4134C27.5986 30.4134 26.9016 30.6292 26.3744 31.1048C25.8361 31.5905 25.5617 32.2706 25.5688 33.011L27.5687 32.9918ZM28.323 32.4134C28.6459 32.4134 28.828 32.5085 28.9181 32.5898C28.9993 32.6631 29.0752 32.7853 29.0774 33.011L31.0773 32.9918C31.0702 32.2573 30.7906 31.5855 30.2578 31.1048C29.7339 30.6321 29.0435 30.4134 28.323 30.4134V32.4134ZM29.0773 32.992C29.0752 33.222 28.9954 33.3582 28.9027 33.443C28.8028 33.5344 28.619 33.6264 28.323 33.6264V35.6264C29.0427 35.6264 29.7314 35.3953 30.2524 34.9189C30.7806 34.4358 31.0702 33.7595 31.0773 33.0109L29.0773 32.992ZM36.3892 41.1293C37.7604 41.1293 38.894 40.5259 39.6431 39.42C40.3587 38.3635 40.6761 36.9244 40.6761 35.2727H38.6761C38.6761 36.7095 38.3934 37.6986 37.9872 38.2983C37.6145 38.8486 37.1046 39.1293 36.3892 39.1293V41.1293ZM40.6761 35.2727C40.6761 33.6283 40.3524 32.1909 39.636 31.1339C38.8884 30.0308 37.7578 29.4162 36.3892 29.4162V31.4162C37.0887 31.4162 37.6016 31.6971 37.9804 32.256C38.3904 32.8609 38.6761 33.8519 38.6761 35.2727H40.6761ZM36.3892 29.4162C35.0205 29.4162 33.89 30.0308 33.1424 31.1339C32.426 32.1909 32.1023 33.6283 32.1023 35.2727H34.1023C34.1023 33.8519 34.3879 32.8609 34.7979 32.256C35.1767 31.6971 35.6897 31.4162 36.3892 31.4162V29.4162ZM32.1023 35.2727C32.1023 36.9244 32.4197 38.3635 33.1353 39.42C33.8844 40.5259 35.018 41.1293 36.3892 41.1293V39.1293C35.6737 39.1293 35.1639 38.8486 34.7912 38.2983C34.3849 37.6986 34.1023 36.7095 34.1023 35.2727H32.1023ZM36.3892 38.1136C36.1087 38.1136 35.8723 38.0054 35.6521 37.6199C35.4013 37.1808 35.2102 36.4188 35.2102 35.2727H33.2102C33.2102 36.5872 33.4208 37.7457 33.9155 38.6119C34.4409 39.5317 35.2939 40.1136 36.3892 40.1136V38.1136ZM35.2102 35.2727C35.2102 34.1314 35.4028 33.3627 35.6566 32.9162C35.8824 32.519 36.1217 32.4134 36.3892 32.4134V30.4134C35.2901 30.4134 34.44 31.0094 33.9179 31.9279C33.4238 32.7971 33.2102 33.9581 33.2102 35.2727H35.2102ZM36.3892 32.4134C36.6566 32.4134 36.8959 32.519 37.1217 32.9162C37.3755 33.3627 37.5682 34.1314 37.5682 35.2727H39.5682C39.5682 33.9581 39.3545 32.7971 38.8605 31.9279C38.3384 31.0094 37.4882 30.4134 36.3892 30.4134V32.4134ZM37.5682 35.2727C37.5682 36.4188 37.3771 37.1808 37.1262 37.6199C36.906 38.0054 36.6697 38.1136 36.3892 38.1136V40.1136C37.4844 40.1136 38.3375 39.5317 38.8629 38.6119C39.3576 37.7457 39.5682 36.5872 39.5682 35.2727H37.5682ZM44.5142 41.1293C45.8854 41.1293 47.019 40.5259 47.7681 39.42C48.4837 38.3635 48.8011 36.9244 48.8011 35.2727H46.8011C46.8011 36.7095 46.5184 37.6986 46.1122 38.2983C45.7395 38.8486 45.2296 39.1293 44.5142 39.1293V41.1293ZM48.8011 35.2727C48.8011 33.6283 48.4774 32.1909 47.761 31.1339C47.0134 30.0308 45.8828 29.4162 44.5142 29.4162V31.4162C45.2137 31.4162 45.7266 31.6971 46.1054 32.256C46.5154 32.8609 46.8011 33.8519 46.8011 35.2727H48.8011ZM44.5142 29.4162C43.1455 29.4162 42.015 30.0308 41.2674 31.1339C40.551 32.1909 40.2273 33.6283 40.2273 35.2727H42.2273C42.2273 33.8519 42.5129 32.8609 42.9229 32.256C43.3017 31.6971 43.8147 31.4162 44.5142 31.4162V29.4162ZM40.2273 35.2727C40.2273 36.9244 40.5447 38.3635 41.2603 39.42C42.0094 40.5259 43.143 41.1293 44.5142 41.1293V39.1293C43.7987 39.1293 43.2889 38.8486 42.9162 38.2983C42.5099 37.6986 42.2273 36.7095 42.2273 35.2727H40.2273ZM44.5142 38.1136C44.2337 38.1136 43.9973 38.0054 43.7771 37.6199C43.5263 37.1808 43.3352 36.4188 43.3352 35.2727H41.3352C41.3352 36.5872 41.5457 37.7457 42.0405 38.6119C42.5658 39.5317 43.4189 40.1136 44.5142 40.1136V38.1136ZM43.3352 35.2727C43.3352 34.1314 43.5278 33.3627 43.7816 32.9162C44.0074 32.519 44.2467 32.4134 44.5142 32.4134V30.4134C43.4151 30.4134 42.565 31.0094 42.0429 31.9279C41.5488 32.7971 41.3352 33.9581 41.3352 35.2727H43.3352ZM44.5142 32.4134C44.7816 32.4134 45.0209 32.519 45.2467 32.9162C45.5005 33.3627 45.6932 34.1314 45.6932 35.2727H47.6932C47.6932 33.9581 47.4795 32.7971 46.9855 31.9279C46.4634 31.0094 45.6132 30.4134 44.5142 30.4134V32.4134ZM45.6932 35.2727C45.6932 36.4188 45.5021 37.1808 45.2512 37.6199C45.031 38.0054 44.7947 38.1136 44.5142 38.1136V40.1136C45.6094 40.1136 46.4625 39.5317 46.9879 38.6119C47.4826 37.7457 47.6932 36.5872 47.6932 35.2727H45.6932Z" fill="#718EBF" mask="url(#path-36-inside-12_105_384)"/>
<path d="M63 220H610" stroke="#DFE5EE" stroke-dasharray="4 4"/>
<path d="M63 173.75H610" stroke="#DFE5EE" stroke-dasharray="4 4"/>
<path d="M63 127.5H610" stroke="#DFE5EE" stroke-dasharray="4 4"/>
<path d="M63 81.2504H610" stroke="#DFE5EE" stroke-dasharray="4 4"/>
<path d="M63 35H610" stroke="#DFE5EE" stroke-dasharray="4 4"/>
<path d="M63 35.0001V220" stroke="#DFE5EE" stroke-dasharray="4 4"/>
<path d="M141.142 35V220" stroke="#DFE5EE" stroke-dasharray="4 4"/>
<path d="M219.285 35V220" stroke="#DFE5EE" stroke-dasharray="4 4"/>
<path d="M297.428 35V220" stroke="#DFE5EE" stroke-dasharray="4 4"/>
<path d="M375.571 35V220" stroke="#DFE5EE" stroke-dasharray="4 4"/>
<path d="M453.714 35V220" stroke="#DFE5EE" stroke-dasharray="4 4"/>
<path d="M531.857 35V220" stroke="#DFE5EE" stroke-dasharray="4 4"/>
<path d="M609.901 35V220" stroke="#EFF3F9"/>
<path d="M100.708 144.89C82.0925 152.908 74.4555 178.631 63 195V217H610V81.7511C605.227 81.7511 587.089 66.217 570.383 73.2323C553.677 80.2477 548.904 162.428 520.265 165.435C491.627 168.442 478.262 84.7577 443.418 87.7643C408.574 90.7709 417.166 168.184 384.709 170.947C352.251 173.71 325.045 34.6476 296.406 40.1597C267.767 45.6717 266.812 107.808 250.584 117.329C234.355 126.85 219.558 103.8 202.853 108.309C186.147 112.819 179.464 162.428 162.281 164.433C145.098 166.437 119.323 136.872 100.708 144.89Z" fill="url(#paint0_linear_105_384)" fill-opacity="0.5"/>
<path d="M63 195C74.4555 178.631 82.0925 152.908 100.708 144.89C119.323 136.872 145.098 166.437 162.281 164.433C179.464 162.428 186.147 112.819 202.853 108.309C219.558 103.8 234.355 126.85 250.584 117.329C266.812 107.808 267.767 45.6717 296.406 40.1597C325.044 34.6476 352.251 173.71 384.709 170.947C417.166 168.184 408.574 90.7709 443.418 87.7643C478.262 84.7577 491.627 168.442 520.265 165.435C548.904 162.428 553.677 80.2477 570.383 73.2324C587.089 66.217 605.227 81.7511 610 81.7511" stroke="#1814F3" stroke-width="3"/>
<defs>
<linearGradient id="paint0_linear_105_384" x1="336.5" y1="40" x2="336.5" y2="217" gradientUnits="userSpaceOnUse">
<stop stop-color="#2D60FF" stop-opacity="0.5"/>
<stop offset="1" stop-color="#2D60FF" stop-opacity="0"/>
</linearGradient>
</defs>
</svg>
