<svg width="730" height="322" viewBox="0 0 730 322" fill="none" xmlns="http://www.w3.org/2000/svg">
<rect width="730" height="322" rx="25" fill="white"/>
<rect x="69" y="76" width="631" height="1" fill="#F3F3F5"/>
<rect x="69" y="113" width="631" height="1" fill="#F3F3F5"/>
<rect x="69" y="150" width="631" height="1" fill="#F3F3F5"/>
<rect x="69" y="187" width="631" height="1" fill="#F3F3F5"/>
<rect x="69" y="224" width="631" height="1" fill="#F3F3F5"/>
<rect x="69" y="261" width="631" height="1" fill="#F3F3F5"/>
<path d="M111.646 283.909H112.754C112.704 282.483 111.388 281.416 109.56 281.416C107.75 281.416 106.328 282.469 106.328 284.057C106.328 285.331 107.252 286.088 108.729 286.513L109.892 286.845C110.889 287.122 111.776 287.473 111.776 288.415C111.776 289.449 110.778 290.132 109.467 290.132C108.341 290.132 107.344 289.634 107.252 288.562H106.07C106.18 290.114 107.436 291.166 109.467 291.166C111.646 291.166 112.884 289.966 112.884 288.433C112.884 286.661 111.203 286.088 110.225 285.83L109.264 285.571C108.563 285.386 107.436 285.017 107.436 284.001C107.436 283.097 108.267 282.432 109.523 282.432C110.668 282.432 111.536 282.977 111.646 283.909ZM116.705 291.166C117.942 291.166 118.588 290.501 118.81 290.04H118.865V291H119.955V286.328C119.955 284.075 118.238 283.817 117.333 283.817C116.262 283.817 115.043 284.186 114.489 285.479L115.523 285.848C115.763 285.331 116.331 284.777 117.37 284.777C118.371 284.777 118.865 285.308 118.865 286.217V286.254C118.865 286.781 118.33 286.734 117.037 286.901C115.722 287.071 114.286 287.362 114.286 288.987C114.286 290.372 115.357 291.166 116.705 291.166ZM116.871 290.188C116.003 290.188 115.375 289.8 115.375 289.043C115.375 288.212 116.132 287.953 116.982 287.842C117.444 287.787 118.681 287.658 118.865 287.436V288.433C118.865 289.32 118.164 290.188 116.871 290.188ZM125.027 283.909H123.513V282.21H122.424V283.909H121.353V284.832H122.424V289.264C122.424 290.501 123.421 291.092 124.344 291.092C124.75 291.092 125.009 291.018 125.157 290.963L124.935 289.984C124.843 290.003 124.695 290.04 124.455 290.04C123.975 290.04 123.513 289.892 123.513 288.969V284.832H125.027V283.909Z" fill="#718EBF"/>
<path d="M199.591 283.909H200.699C200.648 282.483 199.333 281.416 197.505 281.416C195.695 281.416 194.273 282.469 194.273 284.057C194.273 285.331 195.196 286.088 196.674 286.513L197.837 286.845C198.834 287.122 199.72 287.473 199.72 288.415C199.72 289.449 198.723 290.132 197.412 290.132C196.286 290.132 195.289 289.634 195.196 288.562H194.015C194.125 290.114 195.381 291.166 197.412 291.166C199.591 291.166 200.828 289.966 200.828 288.433C200.828 286.661 199.148 286.088 198.169 285.83L197.209 285.571C196.507 285.386 195.381 285.017 195.381 284.001C195.381 283.097 196.212 282.432 197.468 282.432C198.613 282.432 199.48 282.977 199.591 283.909ZM207.032 288.101C207.032 289.43 206.016 290.04 205.204 290.04C204.299 290.04 203.653 289.375 203.653 288.341V283.909H202.563V288.415C202.563 290.224 203.523 291.092 204.853 291.092C205.924 291.092 206.626 290.52 206.958 289.8H207.032V291H208.121V283.909H207.032V288.101ZM211.206 286.734C211.206 285.497 211.973 284.795 213.016 284.795C214.027 284.795 214.641 285.456 214.641 286.568V291H215.73V286.494C215.73 284.685 214.766 283.817 213.33 283.817C212.259 283.817 211.594 284.297 211.262 285.017H211.169V283.909H210.117V291H211.206V286.734Z" fill="#718EBF"/>
<path d="M283.182 281.545V291H284.253V283.817H284.345L287.299 291H288.333L291.288 283.817H291.38V291H292.451V281.545H291.085L287.872 289.393H287.761L284.548 281.545H283.182ZM297.48 291.148C299.4 291.148 300.693 289.689 300.693 287.491C300.693 285.276 299.4 283.817 297.48 283.817C295.559 283.817 294.267 285.276 294.267 287.491C294.267 289.689 295.559 291.148 297.48 291.148ZM297.48 290.169C296.021 290.169 295.356 288.913 295.356 287.491C295.356 286.07 296.021 284.795 297.48 284.795C298.939 284.795 299.603 286.07 299.603 287.491C299.603 288.913 298.939 290.169 297.48 290.169ZM303.446 286.734C303.446 285.497 304.212 284.795 305.255 284.795C306.266 284.795 306.88 285.456 306.88 286.568V291H307.97V286.494C307.97 284.685 307.005 283.817 305.569 283.817C304.498 283.817 303.833 284.297 303.501 285.017H303.409V283.909H302.356V291H303.446V286.734Z" fill="#718EBF"/>
<path d="M374.88 282.561H377.853V291H378.998V282.561H381.971V281.545H374.88V282.561ZM387.094 288.101C387.094 289.43 386.078 290.04 385.266 290.04C384.361 290.04 383.715 289.375 383.715 288.341V283.909H382.625V288.415C382.625 290.224 383.585 291.092 384.915 291.092C385.986 291.092 386.688 290.52 387.02 289.8H387.094V291H388.183V283.909H387.094V288.101ZM393.152 291.148C394.592 291.148 395.645 290.428 395.977 289.357L394.925 289.061C394.648 289.8 394.006 290.169 393.152 290.169C391.873 290.169 390.991 289.343 390.941 287.824H396.088V287.362C396.088 284.722 394.518 283.817 393.041 283.817C391.121 283.817 389.846 285.331 389.846 287.51C389.846 289.689 391.102 291.148 393.152 291.148ZM390.941 286.882C391.014 285.779 391.795 284.795 393.041 284.795C394.223 284.795 394.98 285.682 394.98 286.882H390.941Z" fill="#718EBF"/>
<path d="M464.202 291H465.384L467.471 283.466H467.544L469.631 291H470.813L473.398 281.545H472.235L470.259 289.246H470.167L468.154 281.545H466.861L464.848 289.246H464.756L462.78 281.545H461.617L464.202 291ZM476.99 291.148C478.43 291.148 479.483 290.428 479.815 289.357L478.762 289.061C478.485 289.8 477.844 290.169 476.99 290.169C475.711 290.169 474.829 289.343 474.778 287.824H479.926V287.362C479.926 284.722 478.356 283.817 476.879 283.817C474.958 283.817 473.684 285.331 473.684 287.51C473.684 289.689 474.94 291.148 476.99 291.148ZM474.778 286.882C474.852 285.779 475.632 284.795 476.879 284.795C478.061 284.795 478.818 285.682 478.818 286.882H474.778ZM484.261 291.148C485.627 291.148 486.089 290.298 486.329 289.911H486.458V291H487.511V281.545H486.421V285.036H486.329C486.089 284.666 485.664 283.817 484.279 283.817C482.488 283.817 481.251 285.239 481.251 287.473C481.251 289.726 482.488 291.148 484.261 291.148ZM484.408 290.169C483.042 290.169 482.34 288.969 482.34 287.455C482.34 285.959 483.023 284.795 484.408 284.795C485.738 284.795 486.44 285.866 486.44 287.455C486.44 289.061 485.719 290.169 484.408 290.169Z" fill="#718EBF"/>
<path d="M553.84 282.561H556.813V291H557.958V282.561H560.931V281.545H553.84V282.561ZM563.64 286.734C563.64 285.497 564.429 284.795 565.505 284.795C566.53 284.795 567.148 285.442 567.148 286.568V291H568.238V286.494C568.238 284.671 567.268 283.817 565.819 283.817C564.702 283.817 564.065 284.283 563.732 285.017H563.64V281.545H562.55V291H563.64V286.734ZM574.7 288.101C574.7 289.43 573.684 290.04 572.872 290.04C571.967 290.04 571.321 289.375 571.321 288.341V283.909H570.231V288.415C570.231 290.224 571.191 291.092 572.521 291.092C573.592 291.092 574.294 290.52 574.626 289.8H574.7V291H575.789V283.909H574.7V288.101Z" fill="#718EBF"/>
<path d="M648.407 291H649.552V286.771H653.651V285.756H649.552V282.561H654.076V281.545H648.407V291ZM655.813 291H656.903V286.513C656.903 285.553 657.66 284.851 658.694 284.851C658.985 284.851 659.285 284.906 659.359 284.925V283.817C659.234 283.808 658.948 283.798 658.786 283.798C657.937 283.798 657.198 284.278 656.939 284.98H656.866V283.909H655.813V291ZM660.65 291H661.739V283.909H660.65V291ZM661.204 282.727C661.629 282.727 661.98 282.395 661.98 281.989C661.98 281.582 661.629 281.25 661.204 281.25C660.779 281.25 660.428 281.582 660.428 281.989C660.428 282.395 660.779 282.727 661.204 282.727Z" fill="#718EBF"/>
<path d="M37.7741 81.1293C39.5745 81.1293 40.8948 79.7997 40.8948 77.9901C40.8948 76.1573 39.6206 74.8139 37.8849 74.8139C37.2478 74.8139 36.6292 75.0401 36.2414 75.3494H36.186L36.5184 72.5611H40.4701V71.5455H35.5581L34.9857 76.1989L36.0567 76.3281C36.4491 76.0465 37.1185 75.8434 37.7002 75.848C38.9051 75.8572 39.7868 76.7713 39.7868 78.0085C39.7868 79.2227 38.9374 80.1136 37.7741 80.1136C36.8046 80.1136 36.0336 79.4904 35.9459 78.6364H34.838C34.9072 80.0767 36.1491 81.1293 37.7741 81.1293ZM45.8125 81.1293C47.8991 81.1293 49.0994 79.3612 49.0994 76.2727C49.0994 73.2074 47.8807 71.4162 45.8125 71.4162C43.7443 71.4162 42.5256 73.2074 42.5256 76.2727C42.5256 79.3612 43.7259 81.1293 45.8125 81.1293ZM45.8125 80.1136C44.4368 80.1136 43.6335 78.7333 43.6335 76.2727C43.6335 73.8168 44.446 72.4134 45.8125 72.4134C47.179 72.4134 47.9915 73.8168 47.9915 76.2727C47.9915 78.7333 47.1882 80.1136 45.8125 80.1136ZM53.9375 81.1293C56.0241 81.1293 57.2244 79.3612 57.2244 76.2727C57.2244 73.2074 56.0057 71.4162 53.9375 71.4162C51.8693 71.4162 50.6506 73.2074 50.6506 76.2727C50.6506 79.3612 51.8509 81.1293 53.9375 81.1293ZM53.9375 80.1136C52.5618 80.1136 51.7585 78.7333 51.7585 76.2727C51.7585 73.8168 52.571 72.4134 53.9375 72.4134C55.304 72.4134 56.1165 73.8168 56.1165 76.2727C56.1165 78.7333 55.3132 80.1136 53.9375 80.1136Z" fill="#718EBF"/>
<path d="M35.1663 116.061H39.6166V118H40.7061V116.061H41.9987V115.045H40.7061V108.545H39.3211L35.1663 115.119V116.061ZM39.6166 115.045H36.4035V114.972L39.5427 110.004H39.6166V115.045ZM46.8125 118.129C48.8991 118.129 50.0994 116.361 50.0994 113.273C50.0994 110.207 48.8807 108.416 46.8125 108.416C44.7443 108.416 43.5256 110.207 43.5256 113.273C43.5256 116.361 44.7259 118.129 46.8125 118.129ZM46.8125 117.114C45.4368 117.114 44.6335 115.733 44.6335 113.273C44.6335 110.817 45.446 109.413 46.8125 109.413C48.179 109.413 48.9915 110.817 48.9915 113.273C48.9915 115.733 48.1882 117.114 46.8125 117.114ZM54.9375 118.129C57.0241 118.129 58.2244 116.361 58.2244 113.273C58.2244 110.207 57.0057 108.416 54.9375 108.416C52.8693 108.416 51.6506 110.207 51.6506 113.273C51.6506 116.361 52.8509 118.129 54.9375 118.129ZM54.9375 117.114C53.5618 117.114 52.7585 115.733 52.7585 113.273C52.7585 110.817 53.571 109.413 54.9375 109.413C56.304 109.413 57.1165 110.817 57.1165 113.273C57.1165 115.733 56.3132 117.114 54.9375 117.114Z" fill="#718EBF"/>
<path d="M38.646 155.129C40.4787 155.129 41.8406 153.98 41.8406 152.433C41.8406 151.233 41.1296 150.36 39.9386 150.162V150.088C40.8942 149.797 41.4897 149.012 41.4897 147.946C41.4897 146.607 40.4325 145.416 38.6829 145.416C37.0487 145.416 35.6914 146.423 35.636 147.909H36.744C36.7855 146.967 37.6811 146.413 38.6644 146.413C39.7077 146.413 40.3817 147.046 40.3817 148.001C40.3817 148.999 39.6016 149.645 38.4798 149.645H37.7227V150.661H38.4798C39.9155 150.661 40.7141 151.39 40.7141 152.433C40.7141 153.435 39.8416 154.114 38.6275 154.114C37.5334 154.114 36.6655 153.55 36.5962 152.636H35.4329C35.5021 154.123 36.8132 155.129 38.646 155.129ZM46.8125 155.129C48.8991 155.129 50.0994 153.361 50.0994 150.273C50.0994 147.207 48.8807 145.416 46.8125 145.416C44.7443 145.416 43.5256 147.207 43.5256 150.273C43.5256 153.361 44.7259 155.129 46.8125 155.129ZM46.8125 154.114C45.4368 154.114 44.6335 152.733 44.6335 150.273C44.6335 147.817 45.446 146.413 46.8125 146.413C48.179 146.413 48.9915 147.817 48.9915 150.273C48.9915 152.733 48.1882 154.114 46.8125 154.114ZM54.9375 155.129C57.0241 155.129 58.2244 153.361 58.2244 150.273C58.2244 147.207 57.0057 145.416 54.9375 145.416C52.8693 145.416 51.6506 147.207 51.6506 150.273C51.6506 153.361 52.8509 155.129 54.9375 155.129ZM54.9375 154.114C53.5618 154.114 52.7585 152.733 52.7585 150.273C52.7585 147.817 53.571 146.413 54.9375 146.413C56.304 146.413 57.1165 147.817 57.1165 150.273C57.1165 152.733 56.3132 154.114 54.9375 154.114Z" fill="#718EBF"/>
<path d="M34.8576 192H40.8221V190.984H36.4272V190.911L38.5508 188.639C40.1758 186.899 40.6559 186.086 40.6559 185.038C40.6559 183.58 39.4741 182.416 37.8121 182.416C36.1548 182.416 34.8945 183.543 34.8945 185.205H35.984C35.984 184.129 36.6811 183.413 37.7752 183.413C38.8001 183.413 39.5849 184.041 39.5849 185.038C39.5849 185.911 39.0724 186.557 37.9783 187.753L34.8576 191.169V192ZM45.8125 192.129C47.8991 192.129 49.0994 190.361 49.0994 187.273C49.0994 184.207 47.8807 182.416 45.8125 182.416C43.7443 182.416 42.5256 184.207 42.5256 187.273C42.5256 190.361 43.7259 192.129 45.8125 192.129ZM45.8125 191.114C44.4368 191.114 43.6335 189.733 43.6335 187.273C43.6335 184.817 44.446 183.413 45.8125 183.413C47.179 183.413 47.9915 184.817 47.9915 187.273C47.9915 189.733 47.1882 191.114 45.8125 191.114ZM53.9375 192.129C56.0241 192.129 57.2244 190.361 57.2244 187.273C57.2244 184.207 56.0057 182.416 53.9375 182.416C51.8693 182.416 50.6506 184.207 50.6506 187.273C50.6506 190.361 51.8509 192.129 53.9375 192.129ZM53.9375 191.114C52.5618 191.114 51.7585 189.733 51.7585 187.273C51.7585 184.817 52.571 183.413 53.9375 183.413C55.304 183.413 56.1165 184.817 56.1165 187.273C56.1165 189.733 55.3132 191.114 53.9375 191.114Z" fill="#718EBF"/>
<path d="M38.0096 219.545H36.8647L34.5011 221.115V222.278L36.8093 220.746H36.8647V229H38.0096V219.545ZM43.8125 229.129C45.8991 229.129 47.0994 227.361 47.0994 224.273C47.0994 221.207 45.8807 219.416 43.8125 219.416C41.7443 219.416 40.5256 221.207 40.5256 224.273C40.5256 227.361 41.7259 229.129 43.8125 229.129ZM43.8125 228.114C42.4368 228.114 41.6335 226.733 41.6335 224.273C41.6335 221.817 42.446 220.413 43.8125 220.413C45.179 220.413 45.9915 221.817 45.9915 224.273C45.9915 226.733 45.1882 228.114 43.8125 228.114ZM51.9375 229.129C54.0241 229.129 55.2244 227.361 55.2244 224.273C55.2244 221.207 54.0057 219.416 51.9375 219.416C49.8693 219.416 48.6506 221.207 48.6506 224.273C48.6506 227.361 49.8509 229.129 51.9375 229.129ZM51.9375 228.114C50.5618 228.114 49.7585 226.733 49.7585 224.273C49.7585 221.817 50.571 220.413 51.9375 220.413C53.304 220.413 54.1165 221.817 54.1165 224.273C54.1165 226.733 53.3132 228.114 51.9375 228.114Z" fill="#718EBF"/>
<path d="M51.9375 266.129C54.0241 266.129 55.2244 264.361 55.2244 261.273C55.2244 258.207 54.0057 256.416 51.9375 256.416C49.8693 256.416 48.6506 258.207 48.6506 261.273C48.6506 264.361 49.8509 266.129 51.9375 266.129ZM51.9375 265.114C50.5618 265.114 49.7585 263.733 49.7585 261.273C49.7585 258.817 50.571 257.413 51.9375 257.413C53.304 257.413 54.1165 258.817 54.1165 261.273C54.1165 263.733 53.3132 265.114 51.9375 265.114Z" fill="#718EBF"/>
<rect x="94" y="83" width="15" height="178" rx="7.5" fill="#1814F3"/>
<rect x="121" y="170" width="15" height="91" rx="7.5" fill="#16DBCC"/>
<rect x="184" y="131" width="15" height="130" rx="7.5" fill="#1814F3"/>
<rect x="211" y="212" width="15" height="49" rx="7.5" fill="#16DBCC"/>
<rect x="274" y="139" width="15" height="122" rx="7.5" fill="#1814F3"/>
<rect x="301" y="163" width="15" height="98" rx="7.5" fill="#16DBCC"/>
<rect x="364" y="83" width="15" height="178" rx="7.5" fill="#1814F3"/>
<rect x="391" y="123" width="15" height="138" rx="7.5" fill="#16DBCC"/>
<rect x="454" y="204" width="15" height="57" rx="7.5" fill="#1814F3"/>
<rect x="481" y="170" width="15" height="91" rx="7.5" fill="#16DBCC"/>
<rect x="544" y="116" width="15" height="145" rx="7.5" fill="#1814F3"/>
<rect x="571" y="170" width="15" height="91" rx="7.5" fill="#16DBCC"/>
<rect x="634" y="114" width="15" height="147" rx="7.5" fill="#1814F3"/>
<rect x="661" y="135" width="15" height="126" rx="7.5" fill="#16DBCC"/>
<circle cx="509.5" cy="37.5" r="7.5" fill="#16DBCC"/>
<path d="M531.688 42C535.011 42 536.886 39.9332 536.886 36.5241C536.886 33.1364 535.011 31.0909 531.837 31.0909H528.321V42H531.688ZM529.642 40.8281V32.2628H531.751C534.308 32.2628 535.608 33.8821 535.608 36.5241C535.608 39.1875 534.308 40.8281 531.602 40.8281H529.642ZM538.932 42H540.189V33.8182H538.932V42ZM539.571 32.4545C540.061 32.4545 540.466 32.071 540.466 31.6023C540.466 31.1335 540.061 30.75 539.571 30.75C539.081 30.75 538.676 31.1335 538.676 31.6023C538.676 32.071 539.081 32.4545 539.571 32.4545ZM542.491 45.0682H543.748V40.7429H543.855C544.132 41.1903 544.665 42.1705 546.241 42.1705C548.287 42.1705 549.714 40.5298 549.714 37.9304C549.714 35.3523 548.287 33.7116 546.22 33.7116C544.622 33.7116 544.132 34.6918 543.855 35.1179H543.706V33.8182H542.491V45.0682ZM543.727 37.9091C543.727 36.0767 544.537 34.8409 546.071 34.8409C547.669 34.8409 548.457 36.1832 548.457 37.9091C548.457 39.6562 547.648 41.0412 546.071 41.0412C544.558 41.0412 543.727 39.7628 543.727 37.9091ZM554.956 42.1705C557.172 42.1705 558.663 40.4872 558.663 37.9517C558.663 35.3949 557.172 33.7116 554.956 33.7116C552.74 33.7116 551.248 35.3949 551.248 37.9517C551.248 40.4872 552.74 42.1705 554.956 42.1705ZM554.956 41.0412C553.273 41.0412 552.506 39.5923 552.506 37.9517C552.506 36.3111 553.273 34.8409 554.956 34.8409C556.639 34.8409 557.406 36.3111 557.406 37.9517C557.406 39.5923 556.639 41.0412 554.956 41.0412ZM566.378 35.6506C565.983 34.4893 565.099 33.7116 563.48 33.7116C561.754 33.7116 560.476 34.6918 560.476 36.0767C560.476 37.206 561.147 37.9624 562.649 38.3139L564.013 38.6335C564.838 38.8253 565.227 39.2195 565.227 39.7841C565.227 40.4872 564.481 41.0625 563.309 41.0625C562.281 41.0625 561.637 40.6204 561.413 39.7415L560.22 40.0398C560.513 41.43 561.658 42.1705 563.331 42.1705C565.232 42.1705 566.527 41.1317 566.527 39.7202C566.527 38.5803 565.813 37.8612 564.354 37.5043L563.139 37.206C562.17 36.9663 561.733 36.6413 561.733 36.0128C561.733 35.3097 562.479 34.7983 563.48 34.7983C564.577 34.7983 565.03 35.4055 565.248 35.9702L566.378 35.6506ZM568.419 42H569.676V33.8182H568.419V42ZM569.058 32.4545C569.548 32.4545 569.953 32.071 569.953 31.6023C569.953 31.1335 569.548 30.75 569.058 30.75C568.568 30.75 568.163 31.1335 568.163 31.6023C568.163 32.071 568.568 32.4545 569.058 32.4545ZM575.537 33.8182H573.79V31.858H572.533V33.8182H571.297V34.8835H572.533V39.9972C572.533 41.4247 573.683 42.1065 574.749 42.1065C575.217 42.1065 575.516 42.0213 575.686 41.9574L575.43 40.8281C575.324 40.8494 575.153 40.892 574.876 40.892C574.322 40.892 573.79 40.7216 573.79 39.6562V34.8835H575.537V33.8182Z" fill="#718EBF"/>
<circle cx="614.5" cy="37.5" r="7.5" fill="#FF82AC"/>
<path d="M635.303 42H636.666L639.074 33.3068H639.159L641.567 42H642.93L645.913 31.0909H644.571L642.291 39.9759H642.185L639.862 31.0909H638.371L636.048 39.9759H635.942L633.662 31.0909H632.32L635.303 42ZM647.389 42H648.646V33.8182H647.389V42ZM648.028 32.4545C648.518 32.4545 648.923 32.071 648.923 31.6023C648.923 31.1335 648.518 30.75 648.028 30.75C647.538 30.75 647.133 31.1335 647.133 31.6023C647.133 32.071 647.538 32.4545 648.028 32.4545ZM654.507 33.8182H652.759V31.858H651.502V33.8182H650.267V34.8835H651.502V39.9972C651.502 41.4247 652.653 42.1065 653.718 42.1065C654.187 42.1065 654.485 42.0213 654.656 41.9574L654.4 40.8281C654.294 40.8494 654.123 40.892 653.846 40.892C653.292 40.892 652.759 40.7216 652.759 39.6562V34.8835H654.507V33.8182ZM657.831 37.0781C657.831 35.6506 658.741 34.8409 659.983 34.8409C661.165 34.8409 661.879 35.5866 661.879 36.8864V42H663.136V36.8011C663.136 34.6971 662.017 33.7116 660.345 33.7116C659.056 33.7116 658.321 34.2496 657.937 35.0966H657.831V31.0909H656.573V42H657.831V37.0781ZM668.525 42.1705C670.102 42.1705 670.635 41.1903 670.912 40.7429H671.061V42H672.275V31.0909H671.018V35.1179H670.912C670.635 34.6918 670.145 33.7116 668.547 33.7116C666.48 33.7116 665.052 35.3523 665.052 37.9304C665.052 40.5298 666.48 42.1705 668.525 42.1705ZM668.696 41.0412C667.119 41.0412 666.309 39.6562 666.309 37.9091C666.309 36.1832 667.098 34.8409 668.696 34.8409C670.23 34.8409 671.039 36.0767 671.039 37.9091C671.039 39.7628 670.208 41.0412 668.696 41.0412ZM674.752 42H676.009V36.8224C676.009 35.7145 676.883 34.9048 678.076 34.9048C678.412 34.9048 678.758 34.9688 678.843 34.9901V33.7116C678.699 33.701 678.369 33.6903 678.183 33.6903C677.202 33.6903 676.35 34.2443 676.052 35.054H675.967V33.8182H674.752V42ZM682.741 42.1918C684.168 42.1918 684.914 41.4247 685.17 40.892H685.234V42H686.491V36.6094C686.491 34.0099 684.509 33.7116 683.465 33.7116C682.229 33.7116 680.823 34.1378 680.184 35.6293L681.377 36.0554C681.654 35.4588 682.309 34.8196 683.508 34.8196C684.664 34.8196 685.234 35.4322 685.234 36.4815V36.5241C685.234 37.1314 684.616 37.0781 683.124 37.2699C681.606 37.467 679.95 37.8026 679.95 39.6776C679.95 41.2756 681.185 42.1918 682.741 42.1918ZM682.933 41.0625C681.931 41.0625 681.207 40.6151 681.207 39.7415C681.207 38.7827 682.08 38.4844 683.06 38.3565C683.593 38.2926 685.021 38.1435 685.234 37.8878V39.0384C685.234 40.0611 684.424 41.0625 682.933 41.0625ZM690.639 42H691.875L693.665 35.7145H693.792L695.582 42H696.818L699.311 33.8182H697.99L696.221 40.0611H696.136L694.41 33.8182H693.068L691.321 40.0824H691.236L689.467 33.8182H688.146L690.639 42Z" fill="#718EBF"/>
</svg>
