<svg width="15" height="17" viewBox="0 0 15 17" fill="none" xmlns="http://www.w3.org/2000/svg">
<path d="M11.6666 2.24996H14.7916V0.166626H0.208313V12.6666H3.33331V14.75H0.208313V16.8333H14.7916V4.33329H11.6666V2.24996ZM10.625 6.41663H6.97915C6.84101 6.41663 6.70854 6.4715 6.61086 6.56918C6.51319 6.66685 6.45831 6.79933 6.45831 6.93746C6.45831 7.07559 6.51319 7.20807 6.61086 7.30575C6.70854 7.40342 6.84101 7.45829 6.97915 7.45829H8.02081C8.66662 7.45764 9.28963 7.69698 9.7689 8.12984C10.2482 8.5627 10.5495 9.15821 10.6144 9.80074C10.6793 10.4433 10.5032 11.087 10.1201 11.607C9.7371 12.1269 9.17454 12.486 8.54165 12.6145V13.7083H6.45831V12.6666H4.37498V10.5833H8.02081C8.15895 10.5833 8.29142 10.5284 8.3891 10.4307C8.48677 10.3331 8.54165 10.2006 8.54165 10.0625C8.54165 9.92433 8.48677 9.79185 8.3891 9.69418C8.29142 9.5965 8.15895 9.54163 8.02081 9.54163H6.97915C6.33334 9.54228 5.71033 9.30294 5.23106 8.87008C4.75179 8.43722 4.45045 7.84172 4.38555 7.19918C4.32064 6.55664 4.4968 5.9129 4.87983 5.39294C5.26286 4.87298 5.82542 4.51389 6.45831 4.38538V3.29163H8.54165V4.33329H10.625V6.41663Z" fill="#B1B1B1"/>
</svg>
